<svg xmlns="http://www.w3.org/2000/svg" viewBox="0 0 17.99 10.9"><defs><style>.cls-1{fill:#c3c1c1;}</style></defs><title>資產 1</title><g id="圖層_2" data-name="圖層 2"><g id="圖層_1-2" data-name="圖層 1"><path class="cls-1" d="M9,1.09A9.63,9.63,0,0,1,14.47,3a8.43,8.43,0,0,1,2.4,2.43,8.42,8.42,0,0,1-2.4,2.44A9.63,9.63,0,0,1,9,9.81,9.63,9.63,0,0,1,3.52,7.89,8.19,8.19,0,0,1,1.13,5.45,8.2,8.2,0,0,1,3.52,3,9.64,9.64,0,0,1,9,1.09M9,0C4,0,0,4.36,0,5.45S4,10.9,9,10.9s9-4.36,9-5.45S14,0,9,0ZM9,2.18a3.27,3.27,0,1,0,3.27,3.27A3.28,3.28,0,0,0,9,2.18ZM8.11,5.45A1.39,1.39,0,1,1,9.5,4.07,1.38,1.38,0,0,1,8.11,5.45Z"/></g></g></svg>