<svg xmlns="http://www.w3.org/2000/svg" xmlns:xlink="http://www.w3.org/1999/xlink" viewBox="0 0 63 137"><defs><style>.cls-1{fill:none;}.cls-2{isolation:isolate;}.cls-3{clip-path:url(#clip-path);}.cls-4{clip-path:url(#clip-path-2);}.cls-5{clip-path:url(#clip-path-3);}.cls-6{clip-path:url(#clip-path-4);}.cls-7{fill:#070001;mix-blend-mode:color;}.cls-8{fill:#5092ac;}.cls-9{fill:url(#未命名漸層_2);}.cls-10{opacity:0.15;}.cls-11{fill:#fff;fill-rule:evenodd;}</style><clipPath id="clip-path"><path class="cls-1" d="M-205.94-78.07h51.47a11.94,11.94,0,0,1,11.94,11.94V47.55a11.94,11.94,0,0,1-11.94,11.94h-51.47a0,0,0,0,1,0,0V-78.07A0,0,0,0,1-205.94-78.07Z" transform="translate(-348.47 -18.58) rotate(-180)"/></clipPath><clipPath id="clip-path-2"><rect class="cls-1" x="-236.88" y="-77.95" width="231.62" height="137.51"/></clipPath><clipPath id="clip-path-3"><rect class="cls-1" x="-0.21" y="-0.28" width="63.41" height="137.56" transform="translate(63 137) rotate(-180)"/></clipPath><clipPath id="clip-path-4"><rect class="cls-1" x="-31.15" y="-0.16" width="231.62" height="137.51"/></clipPath><linearGradient id="未命名漸層_2" x1="84.75" y1="137.23" x2="84.75" y2="-0.28" gradientUnits="userSpaceOnUse"><stop offset="0.23" stop-color="#004263"/><stop offset="1" stop-color="#137aa8"/></linearGradient><image id="image" width="5200" height="3521" xlink:href="I:%5C01-Case%20(%E5%B0%88%E6%A1%88)%5C%E7%B6%B2%E7%AB%99-2020-05-06-%E8%88%88%E6%98%87%E8%B3%87%E8%A8%8A-%E7%87%9F%E9%80%A0%E5%85%AC%E5%8F%B8-%E4%BC%81%E6%A5%AD%E7%B6%B2%E7%AB%99%5C05-%E7%B4%A0%E6%9D%90%5CNeo%5C1598.jpg"/></defs><title>工作區域 6</title><g class="cls-2"><g id="圖層_1" data-name="圖層 1"><g class="cls-3"><g class="cls-4"><use transform="matrix(-0.05, 0, 0, 0.05, 2.57, -102.67)" xlink:href="#image"/></g></g><g class="cls-5"><g class="cls-6"><use transform="matrix(-0.05, 0, 0, 0.05, 208.3, -24.89)" xlink:href="#image"/></g><rect class="cls-7" x="-31.15" y="-0.28" width="231.62" height="137.51"/><rect class="cls-8" x="-31.15" y="-0.28" width="231.62" height="137.51"/><rect class="cls-9" x="-31.15" y="-0.28" width="231.8" height="137.51"/><rect class="cls-1" x="-31.15" y="-0.28" width="231.8" height="137.51"/><g class="cls-10"><path class="cls-11" d="M77.93,93.61c-14.4,10-29.15,18.88-50.76,23.53-7,1.59-14.92,2.61-19.31-1a12.28,12.28,0,0,1-3.16-4.79c-2.11-6-.36-12.21,2.28-18,3.85-8.54,20.19-33.73,20.19-33.73L13.65,74.14c-11.76,12.35-23,25-23.88,41.83-.35,7.12,1.05,15.11,7,18.74,3.87,2.33,9.66,2.77,15.11,2.47,11.59-.72,21.24-5.37,30.55-10.46C76,109,111.31,82.18,134.85,56.18c7.81-8.64,17.07-19.34,24.27-28.49L119.9,61.94c-13.66,10.59-27,21.11-42,31.67Z"/><path class="cls-11" d="M150.48,50.24c-26.36,27.09-57,57.2-90,75.46-7.29,4-15,7.87-22.89,11.56H85c5.47-5.7,10.93-11.39,16.2-17.26,17-18.93,31.2-39.53,45.17-63Z"/></g></g></g></g></svg>