<svg id="圖層_1" data-name="圖層 1" xmlns="http://www.w3.org/2000/svg" xmlns:xlink="http://www.w3.org/1999/xlink" viewBox="0 0 364.5 105"><defs><style>.cls-1{fill:none;}.cls-2{clip-path:url(#clip-path);}.cls-3,.cls-4,.cls-5{fill:#fff;}.cls-3{fill-rule:evenodd;}.cls-5{font-size:23.41px;font-family:MicrosoftJhengHeiRegular, Microsoft JhengHei;letter-spacing:0.2em;}</style><clipPath id="clip-path"><rect class="cls-1" x="-1088.96" y="716.51" width="1920" height="481.26" transform="translate(-257.93 1914.28) rotate(180)"/></clipPath></defs><title>工作區域 8</title><g class="cls-2"><image width="7360" height="4912" transform="translate(-1088.96 46.66) scale(0.26)" xlink:href="I:%5C01-Case%20(%E5%B0%88%E6%A1%88)%5C%E7%B6%B2%E7%AB%99-2020-05-06-%E8%88%88%E6%98%87%E8%B3%87%E8%A8%8A-%E7%87%9F%E9%80%A0%E5%85%AC%E5%8F%B8-%E4%BC%81%E6%A5%AD%E7%B6%B2%E7%AB%99%5C05-%E7%B4%A0%E6%9D%90%5C%E4%BD%95%E5%AD%B8%E6%89%BF%5C%E7%A2%BA%E5%AE%9A%E7%B4%A0%E6%9D%90%5C2658311.jpg"/></g><path class="cls-3" d="M56.88,73.56c9.19,6.4,18.6,12,32.39,15,4.49,1,9.53,1.67,12.33-.65a7.84,7.84,0,0,0,2-3.06c1.35-3.8.23-7.79-1.46-11.5a55,55,0,0,0-4.25-7.78V61.13c7.51,7.89,14.68,15.95,15.24,26.71.23,4.54-.67,9.64-4.48,12-2.47,1.48-6.17,1.76-9.64,1.58-7.4-.47-13.57-3.43-19.51-6.68-21.41-11.31-44-28.43-59-45-5-5.51-10.9-12.34-15.5-18.18l25,21.85C38.8,60.1,47.3,66.82,56.88,73.56Z"/><path class="cls-3" d="M10.56,45.88C27.39,63.17,47,82.39,68,94.05c4.66,2.57,9.57,5,14.62,7.38H52.39c-3.49-3.64-7-7.27-10.34-11C31.18,78.33,22.13,65.17,13.21,50.2Z"/><path class="cls-3" d="M30.08,49.86h0V43.45L53.37,31.87v35.9l13.81,9.38L83.1,69.07v15.3c2,.59,4,1.13,6.17,1.59a30.7,30.7,0,0,0,7.07.92V28.81l-13.24,9V64.45l-15.92,8V36.55L53.37,27.27,30.09,38.8V6.73L56.86,19.55V27.4l4,2.72V16.19L30.09,1.43,14.18,12.12V35.91Z"/><path class="cls-3" d="M83.1,98.79v2.64h7.48A32.86,32.86,0,0,1,83.1,98.79Z"/><path class="cls-3" d="M14.18,56.24V101.4H30.09V80.2C24.51,72.71,19.31,64.77,14.18,56.24Z"/><path class="cls-4" d="M138,31.46A9.57,9.57,0,0,1,136,37.83a4.34,4.34,0,0,1-2.85.93,2.93,2.93,0,0,1-2.23-1.29,3.07,3.07,0,0,1-.15-2.64,3.74,3.74,0,0,1,2.07-2.18,8.62,8.62,0,0,0,4.2-5c.06-.24.17-.37.31-.37a.45.45,0,0,1,.36.42,11.25,11.25,0,0,1,.31,2l3,.15h10.93v-7c0-.24,0-.54,0-.88q0-.21.36-.21a28.3,28.3,0,0,1,6,.78c.72.27,1.08.59,1.08.93,0,.49-.32.83-1,1q-.61.21-.57.72v4.66h11.86a1.34,1.34,0,0,0,.83-.41,9.91,9.91,0,0,1,2-1.5,1.09,1.09,0,0,1,.88,0,26.48,26.48,0,0,1,5.28,3.47,1.21,1.21,0,0,1,.31,1.19,1.57,1.57,0,0,1-1.29.41,1.46,1.46,0,0,0-.78.11,92.24,92.24,0,0,1-8,4.76c-.48.11-.77.11-.88,0a.92.92,0,0,1,0-.83,41.79,41.79,0,0,0,2.8-5.85H141Zm6.42,11.81h-8.23l-3.06.46q-.51.21-.57-.15a14.58,14.58,0,0,1-.51-1.87c-.07-.24.12-.31.57-.2l3.57.36h8.49q.53-3.32.73-6.63c0-.62.07-1.19.1-1.71,0-.31.12-.48.36-.52a35,35,0,0,1,6,1c.83.2,1.24.51,1.24.93s-.31.69-.93.93a.79.79,0,0,0-.62.78q-.47,2.38-1.09,5.23h16.83a1.18,1.18,0,0,0,1-.52c.9-1.28,1.88-2.55,3-3.83a.81.81,0,0,1,1.09-.11,19.21,19.21,0,0,1,5.33,4.77c.24.27.31.52.21.72a.94.94,0,0,1-.88.37H150.21A85.74,85.74,0,0,1,145.4,57a28.32,28.32,0,0,1-13.73,12.79c-.31.07-.48,0-.52-.1s.11-.48.52-.73Q142.54,59.43,144.46,43.27Zm23.51,20q-6.51,2.79-21.59,6.26c-1,.25-1.57.57-1.71,1-.24.62-.59.93-1,.93s-.74-.41-1-1.35c-.41-1.58-.79-3.38-1.14-5.38,0-.38.17-.55.62-.52q4.05.11,7.93.05,4.4-10.05,4.4-17.55a.32.32,0,0,1,.41-.32,23.44,23.44,0,0,1,5.85,1.51c.69.31,1,.64,1,1s-.38.57-.93.67c-.35.07-.54.23-.57.47a47.56,47.56,0,0,1-8.34,14.19,139.25,139.25,0,0,0,15.38-2.17,12.08,12.08,0,0,0-3.93-4.36.47.47,0,0,1-.21-.62c.07-.24.26-.34.57-.31q9,2.59,11.7,9.33a4.58,4.58,0,0,1,.11,3.46,2.67,2.67,0,0,1-2.07,2,2.93,2.93,0,0,1-2.7-.63,4.4,4.4,0,0,1-1.19-2.79A17.11,17.11,0,0,0,168,63.31Z"/><path class="cls-4" d="M220.77,63.67a26.37,26.37,0,0,1-4-9.84h-10.2v3.06c2-.52,3.95-1.11,5.95-1.76.35-.14.57-.11.68.1a.68.68,0,0,1-.26.67,51.54,51.54,0,0,1-6.37,3.37v6.42a7.3,7.3,0,0,1-.78,3.73q-1.6,2.64-6.27,2.64c-.34-.07-.51-.23-.51-.46.17-2.08-.88-3.68-3.16-4.82a.55.55,0,0,1-.37-.57.38.38,0,0,1,.47-.31c1.52,0,2.81,0,3.88-.05s1.4-.43,1.4-1.3V61.29q-3.36,1.14-6.47,2.23c-.93.31-1.42.64-1.45,1-.17.59-.47.9-.88.93s-.69-.33-.93-1.09A33.18,33.18,0,0,1,190,59.63c-.07-.34.11-.52.52-.52A94.61,94.61,0,0,0,201.19,58v-4.2h-7.87l-3.06.47c-.34.14-.53.08-.56-.16a13.36,13.36,0,0,1-.52-1.86q-.1-.36.57-.21l3.57.36h7.87V49.27a68.51,68.51,0,0,1-9.47,1c-.32,0-.49-.12-.52-.36s.12-.43.46-.47a58.78,58.78,0,0,0,14.82-6.21H193.53l-3.06.46q-.51.21-.57-.15a16.41,16.41,0,0,1-.52-1.87c-.07-.24.13-.31.57-.2l3.58.36H210.1v-4.2H198.5l-3.06.47c-.34.14-.53.09-.57-.16a14.43,14.43,0,0,1-.51-1.86q-.11-.36.57-.21l3.57.36h11.6V32.08H195.6l-3.06.47c-.34.13-.53.08-.57-.16a14.88,14.88,0,0,1-.51-1.86c-.07-.24.12-.32.57-.21l3.57.36h7.87A4.58,4.58,0,0,1,202,27.94a6.83,6.83,0,0,0-2.54-5.18.54.54,0,0,1-.15-.52.37.37,0,0,1,.46-.26l1.71.26q4.25,1,5.7,3.73a4.18,4.18,0,0,1,.15,3.11,2.83,2.83,0,0,1-1.19,1.6h10a38.26,38.26,0,0,0,2.59-8.54c0-.35.15-.5.46-.47A47.9,47.9,0,0,1,224.08,23c.94.25,1.38.63,1.35,1.14s-.43.8-1.09.83a1.65,1.65,0,0,0-1.09.73,24.35,24.35,0,0,1-5.33,5h6.68a1,1,0,0,0,.93-.47,38.66,38.66,0,0,1,2.8-3.57.75.75,0,0,1,1-.1A15.85,15.85,0,0,1,234.23,31c.25.28.31.52.21.73a.93.93,0,0,1-.88.36H215.85v4.19h6.52a1,1,0,0,0,.83-.41c.8-1.07,1.66-2.12,2.59-3.16a.6.6,0,0,1,.88-.05,14.52,14.52,0,0,1,4.25,3.93c.24.28.31.52.21.73a.94.94,0,0,1-.88.36h-14.4v4.2h11.81a1,1,0,0,0,.88-.47c.86-1.14,1.78-2.28,2.74-3.42a.7.7,0,0,1,1-.1,17,17,0,0,1,4.66,4.3c.24.27.31.52.2.72a.93.93,0,0,1-.88.37h-28a29.17,29.17,0,0,1,3.83,2.38c.52.45.71.84.57,1.19a1,1,0,0,1-1,.36,26,26,0,0,0-5.12,1v4.19h9.89a40,40,0,0,1-.78-5.64c-.07-.76-.15-1.47-.26-2.12,0-.38.12-.56.47-.52a32.65,32.65,0,0,1,5.54.88.92.92,0,0,1,.62.62c.07.38-.21.77-.83,1.19a1.32,1.32,0,0,0-.41,1.4,23.64,23.64,0,0,0,.57,4.19h6.42a1,1,0,0,0,.83-.41c.79-1.07,1.66-2.13,2.59-3.16.24-.28.53-.29.88,0a14.36,14.36,0,0,1,4.24,3.93c.25.28.32.52.21.73a.93.93,0,0,1-.88.36h-14A24.7,24.7,0,0,0,224,60.1a33.14,33.14,0,0,0,2.9-4.51c.07-.2.21-.26.42-.15A31.08,31.08,0,0,1,232,57.92c.55.42.76.8.62,1.14a1,1,0,0,1-1,.42.9.9,0,0,0-.83.41A39.8,39.8,0,0,1,227,63.46q3.61,2.85,5.33,2.7c.79-.28,1.71-2.28,2.74-6,.18-.45.42-.66.73-.62s.5.43.46,1c-.27,4.32-.05,6.73.68,7.25,1.07,1.14,1.43,2.19,1.09,3.16a2.78,2.78,0,0,1-2.65,1.5c-1.86.14-4.16-.51-6.88-2a24.71,24.71,0,0,1-5.49-4,38.43,38.43,0,0,1-13.62,5.12c-.28,0-.43-.05-.47-.26a.32.32,0,0,1,.31-.41A42.72,42.72,0,0,0,220.77,63.67Zm2-18.8a.44.44,0,0,1-.26-.52.39.39,0,0,1,.47-.26,10.81,10.81,0,0,1,1.29-.05A6.91,6.91,0,0,1,229.16,46a4.31,4.31,0,0,1,.41,2.95A2.42,2.42,0,0,1,228,50.83a2.47,2.47,0,0,1-2.38-.31,3.64,3.64,0,0,1-1.3-2.23A5.13,5.13,0,0,0,222.79,44.87Z"/><path class="cls-4" d="M268.43,65.9V30.42h-14.5l-3.05.47c-.35.14-.54.09-.57-.16a14.42,14.42,0,0,1-.52-1.86q-.1-.36.57-.21l3.57.36h28.85a1.21,1.21,0,0,0,1-.51c.89-1.28,1.88-2.56,2.95-3.84a.81.81,0,0,1,1.09-.1,19.34,19.34,0,0,1,5.33,4.76c.24.28.31.52.21.73a.94.94,0,0,1-.88.36H274.18V65.9h11.09a1.18,1.18,0,0,0,1-.52c.9-1.28,1.88-2.55,2.95-3.83a.81.81,0,0,1,1.09-.11,19.11,19.11,0,0,1,5.34,4.77c.24.27.31.52.2.72a.94.94,0,0,1-.88.37H251.45l-3.06.46q-.51.21-.57-.15a14.58,14.58,0,0,1-.51-1.87c-.07-.24.12-.31.56-.2l3.58.36Z"/><path class="cls-4" d="M318.53,45.49V70.25a1.94,1.94,0,0,1-1.29,1.86,4.1,4.1,0,0,1-3.42-.15,1.8,1.8,0,0,1-.88-1.76V54.3a17.69,17.69,0,0,1-6.47,9.63q-.57.36-.93,0a.59.59,0,0,1,0-.83,70.35,70.35,0,0,0,7.25-22.74h-3.68l-3.37.42c-.24.1-.38,0-.41-.16-.14-.58-.28-1.19-.41-1.81,0-.17.12-.24.46-.2l3.73.36h3.78V30a64.25,64.25,0,0,1-6.52.62c-.52,0-.78-.07-.78-.31s.12-.47.46-.57q9.28-3.16,13.47-6.63c.38-.35.69-.45.93-.31a22.08,22.08,0,0,1,4.87,3c.73.62,1,1.16.73,1.61s-.75.5-1.61.36t-6,1.3V39h.52a.92.92,0,0,0,.78-.42,27.21,27.21,0,0,1,2.07-2.9.64.64,0,0,1,1.09-.2A13.52,13.52,0,0,1,326,38.92a1,1,0,0,1,.26,1c-.1.28-.36.41-.77.41h-7v3.27l.47.1a10.17,10.17,0,0,1,6.47,5.39,4.35,4.35,0,0,1-.1,3.11,2.31,2.31,0,0,1-2,1.65,2.41,2.41,0,0,1-2.33-.72,3.45,3.45,0,0,1-.93-2.54A10.64,10.64,0,0,0,318.53,45.49Zm17,23.52V59h-6.32l-3.05.47c-.35.13-.54.08-.57-.16a14.89,14.89,0,0,1-.52-1.86c-.07-.24.12-.32.57-.21l3.57.36h6.32v-7.3A72.42,72.42,0,0,1,327,51c-.35,0-.54-.17-.57-.41s.12-.49.47-.52q11.28-2.89,17.19-6.84a1.13,1.13,0,0,1,.78-.2A26.07,26.07,0,0,1,350,46.22c.62.45.83.9.62,1.34a1,1,0,0,1-1.14.37q-.57,0-8.33,1.55v8.13h1.13a1,1,0,0,0,.88-.47c.87-1.13,1.78-2.27,2.75-3.41a.69.69,0,0,1,1-.11,16.86,16.86,0,0,1,4.66,4.3c.25.28.32.52.21.73a.93.93,0,0,1-.88.36h-9.73V69h3.41a1,1,0,0,0,.88-.47c.87-1.14,1.78-2.28,2.75-3.42a.69.69,0,0,1,1-.1,16.56,16.56,0,0,1,4.66,4.3q.36.41.21.72a.93.93,0,0,1-.88.36H325.94l-3.06.47c-.34.14-.53.08-.56-.16a14,14,0,0,1-.52-1.86q-.1-.36.57-.21l3.57.37Zm-3.16-29.68v1a2.15,2.15,0,0,1-.88,1.92,5.43,5.43,0,0,1-2.59.73,2.89,2.89,0,0,1-1.7-.47,1.79,1.79,0,0,1-.37-1.4V23.53c0-.34.07-.5.21-.46a16.49,16.49,0,0,1,5.44,2H344c.1-.07.74-.67,1.91-1.82a.5.5,0,0,1,.57-.05,19.62,19.62,0,0,1,4.87,2.54c1,.73.83,1.4-.41,2a1,1,0,0,0-.52.93V40.47a1.79,1.79,0,0,1-.88,1.5,6.38,6.38,0,0,1-2.65.67,1.92,1.92,0,0,1-1.65-.62,2.3,2.3,0,0,1-.36-1.55V39.33Zm0-1.4H344.9V26.8c-.14-.31-.33-.42-.57-.31H332.57l-.16.05Z"/><text class="cls-5" transform="translate(128.64 102.11)">專業 ‧ 誠信 ‧ 永續</text></svg>