<svg id="圖層_1" data-name="圖層 1" xmlns="http://www.w3.org/2000/svg" viewBox="0 0 381.22 111.37"><defs><style>.cls-1,.cls-2{fill:#fff;}.cls-1{fill-rule:evenodd;}.cls-3{isolation:isolate;}</style></defs><title>工作區域 5</title><path class="cls-1" d="M56.65,78.76c10,7,20.31,13.11,35.37,16.38,4.9,1.09,10.4,1.82,13.46-.71a8.6,8.6,0,0,0,2.19-3.34c1.47-4.15.25-8.51-1.6-12.56A59.7,59.7,0,0,0,101.43,70V65.19c8.2,8.61,16,17.42,16.64,29.16.25,5-.73,10.53-4.89,13.11-2.7,1.61-6.74,1.92-10.53,1.72-8.08-.51-14.81-3.74-21.3-7.29-23.38-12.35-48-31-64.42-49.14C11.47,46.74,5,39.28,0,32.9L27.3,56.76C36.91,64.06,46.19,71.4,56.65,78.76Z"/><path class="cls-1" d="M6.07,48.54c18.38,18.88,39.79,39.86,62.72,52.6,5.09,2.8,10.45,5.46,16,8h-33c-3.81-4-7.65-7.93-11.29-12C28.59,84,18.71,69.6,9,53.25Z"/><path class="cls-1" d="M27.39,52.88h0v-7L52.82,33.24v39.2L67.9,82.68l17.38-8.82V90.57c2.18.64,4.37,1.23,6.74,1.73a33.42,33.42,0,0,0,7.72,1V29.9L85.28,39.72V68.81L67.9,77.55V38.35L52.82,28.22,27.4,40.81v-35l29.23,14v8.57l4.37,3V16.12L27.4,0,10,11.67v26Z"/><path class="cls-1" d="M85.28,106.31v2.88h8.17A35.45,35.45,0,0,1,85.28,106.31Z"/><path class="cls-1" d="M10,59.85v49.31H27.4V86C21.3,77.83,15.63,69.16,10,59.85Z"/><path class="cls-2" d="M145.23,32.79a10.46,10.46,0,0,1-2.19,7,4.76,4.76,0,0,1-3.11,1,3.21,3.21,0,0,1-2.43-1.41,3.35,3.35,0,0,1-.17-2.88,4.11,4.11,0,0,1,2.26-2.38,9.4,9.4,0,0,0,4.59-5.46c.07-.26.19-.4.34-.4a.48.48,0,0,1,.39.46,12.22,12.22,0,0,1,.34,2.18l3.28.16h11.93v-8.6c0-.15.13-.23.39-.23a30.87,30.87,0,0,1,6.56.85c.78.3,1.18.65,1.18,1,0,.53-.35.9-1.1,1.09-.44.15-.65.41-.62.78V31h12.95a1.43,1.43,0,0,0,.91-.44A10.56,10.56,0,0,1,182.91,29a1.15,1.15,0,0,1,1,0,29,29,0,0,1,5.77,3.79A1.33,1.33,0,0,1,190,34a1.74,1.74,0,0,1-1.41.44,1.64,1.64,0,0,0-.85.12A100.07,100.07,0,0,1,179,39.8q-.78.18-1,0a1,1,0,0,1,0-.9,46.24,46.24,0,0,0,3.06-6.39H148.5Zm7,12.9h-9l-3.34.5c-.37.15-.58.1-.62-.16a15.91,15.91,0,0,1-.56-2.05c-.07-.26.13-.33.62-.21l3.9.39h9.27c.39-2.42.65-4.83.8-7.24,0-.68.08-1.3.11-1.87,0-.34.13-.52.39-.57a38.13,38.13,0,0,1,6.55,1.1c.91.21,1.36.55,1.36,1s-.34.75-1,1a.84.84,0,0,0-.67.85c-.35,1.73-.74,3.63-1.19,5.71h18.37a1.28,1.28,0,0,0,1.09-.57,52,52,0,0,1,3.28-4.18.88.88,0,0,1,1.19-.12,21,21,0,0,1,5.82,5.21c.26.29.34.57.23.78a1,1,0,0,1-1,.41H158.56a93.69,93.69,0,0,1-5.25,15,31,31,0,0,1-15,14c-.34.07-.53,0-.57-.11a1,1,0,0,1,.57-.8q11.87-10.41,14-28Zm25.67,21.84q-7.11,3-23.57,6.83c-1.1.27-1.72.62-1.87,1.09-.26.68-.65,1-1.09,1s-.81-.45-1.1-1.48c-.44-1.72-.86-3.69-1.24-5.87,0-.41.19-.6.68-.57q4.41.12,8.66.06,4.8-11,4.8-19.17a.35.35,0,0,1,.34-.36h.11A26.13,26.13,0,0,1,170,50.74c.75.34,1.09.7,1.09,1.09s-.42.63-1,.74c-.38.07-.59.25-.62.51a51.71,51.71,0,0,1-9.11,15.49,148.59,148.59,0,0,0,16.8-2.37,13.26,13.26,0,0,0-4.29-4.76.5.5,0,0,1-.23-.67c.07-.27.28-.37.62-.34q9.83,2.82,12.77,10.19a4.93,4.93,0,0,1,.12,3.77,2.91,2.91,0,0,1-2.26,2.19,3.18,3.18,0,0,1-2.94-.69,4.82,4.82,0,0,1-1.3-3A18.81,18.81,0,0,0,178,67.57Z"/><path class="cls-2" d="M235.61,68a28.75,28.75,0,0,1-4.37-10.74H220.1v3.34c2.19-.57,4.32-1.21,6.5-1.92.38-.16.62-.12.74.11a.72.72,0,0,1-.28.73,55.73,55.73,0,0,1-7,3.68v7a8,8,0,0,1-.85,4.07c-1.16,1.92-3.45,2.88-6.84,2.88-.38-.07-.56-.25-.56-.5.18-2.27-1-4-3.45-5.26a.62.62,0,0,1-.41-.62.42.42,0,0,1,.48-.35h0c1.66,0,3.07,0,4.23-.06s1.53-.47,1.53-1.42V65.36c-2.44.83-4.8,1.65-7.06,2.44-1,.34-1.55.7-1.59,1.09-.18.65-.51,1-1,1s-.75-.36-1-1.19A36.1,36.1,0,0,1,202,63.55c-.08-.37.12-.57.57-.57a101.32,101.32,0,0,0,11.65-1.21V57.19h-8.59l-3.35.51c-.37.15-.58.09-.61-.18a14.22,14.22,0,0,1-.57-2c-.07-.26.14-.34.63-.23l3.9.4h8.59V52.24a74.76,74.76,0,0,1-10.34,1.09q-.52,0-.57-.39c0-.26.13-.47.5-.52A63.94,63.94,0,0,0,220,45.64H205.86l-3.34.51c-.37.15-.58.09-.62-.17a18.16,18.16,0,0,1-.57-2c-.07-.26.14-.34.63-.22l3.9.39H224V39.53H211.29L208,40c-.37.15-.58.1-.62-.17a16.55,16.55,0,0,1-.56-2c-.08-.27.13-.34.62-.23l3.9.39H224V33.47H208.12l-3.34.51c-.37.14-.58.09-.62-.17a18.54,18.54,0,0,1-.56-2c-.07-.27.14-.35.63-.23l3.89.39h8.6a5,5,0,0,1-1.61-3,7.45,7.45,0,0,0-2.77-5.66.58.58,0,0,1-.16-.57.39.39,0,0,1,.49-.28h0l1.87.28q4.63,1.09,6.22,4.08a4.52,4.52,0,0,1,.16,3.39,3.09,3.09,0,0,1-1.3,1.75h10.92a41.19,41.19,0,0,0,2.83-9.33c0-.38.17-.54.5-.51a53.91,53.91,0,0,1,5.34,1.45c1,.28,1.51.69,1.48,1.25s-.47.87-1.19.9a1.8,1.8,0,0,0-1.19.8A26.94,26.94,0,0,1,232.5,32h7.29a1.1,1.1,0,0,0,1-.51,42.57,42.57,0,0,1,3.05-3.9.83.83,0,0,1,1.1-.11,17.35,17.35,0,0,1,5.35,4.85.74.74,0,0,1,.23.8,1.06,1.06,0,0,1-1,.39H230.24v4.57h7.12a1.07,1.07,0,0,0,.9-.44c.88-1.17,1.81-2.32,2.83-3.45a.65.65,0,0,1,.92-.09l0,0a16,16,0,0,1,4.64,4.29c.26.31.34.57.23.8a1,1,0,0,1-1,.39H230.24v4.59h12.89a1.08,1.08,0,0,0,1-.51c.94-1.25,1.95-2.49,3-3.74a.76.76,0,0,1,1.07-.12h0a18.69,18.69,0,0,1,5.09,4.7c.26.29.33.57.21.78a1,1,0,0,1-1,.41H222a30.05,30.05,0,0,1,4.18,2.6c.57.49.78.91.62,1.3a1.09,1.09,0,0,1-1.09.39,28.06,28.06,0,0,0-5.59,1.09v4.58h10.8A44.08,44.08,0,0,1,230,49.5c-.08-.83-.17-1.61-.29-2.32,0-.41.14-.61.52-.56a34.49,34.49,0,0,1,6.05,1,1,1,0,0,1,.67.67c.08.42-.23.84-.9,1.3a1.44,1.44,0,0,0-.45,1.53,26.27,26.27,0,0,0,.62,4.58h7a1.11,1.11,0,0,0,.91-.45A42.73,42.73,0,0,1,247,51.76c.26-.31.58-.32,1,0a15.67,15.67,0,0,1,4.63,4.29c.27.31.35.57.23.8a1.05,1.05,0,0,1-1,.39H236.56a26.42,26.42,0,0,0,2.58,6.82,36.75,36.75,0,0,0,3.16-4.92c.08-.22.23-.28.46-.16a33.68,33.68,0,0,1,5.11,2.7c.6.46.83.88.68,1.25a1.11,1.11,0,0,1-1.09.46,1,1,0,0,0-.91.45,43.49,43.49,0,0,1-4.14,3.89q3.94,3.12,5.82,3c.86-.3,1.87-2.49,3-6.55.2-.49.46-.72.8-.68s.55.47.5,1.09c-.29,4.72-.05,7.35.75,7.92,1.16,1.25,1.56,2.39,1.19,3.45a3,3,0,0,1-2.9,1.64c-2,.15-4.54-.56-7.51-2.18a27.46,27.46,0,0,1-6-4.37,42,42,0,0,1-14.87,5.59c-.3,0-.47-.06-.51-.28a.36.36,0,0,1,.24-.44h.1A46.67,46.67,0,0,0,235.61,68Zm2.18-20.53a.48.48,0,0,1-.28-.56.43.43,0,0,1,.51-.29,13.29,13.29,0,0,1,1.41,0,7.56,7.56,0,0,1,5.34,2.14,4.68,4.68,0,0,1,.45,3.22,2.76,2.76,0,0,1-4.32,1.71,4,4,0,0,1-1.41-2.43,5.64,5.64,0,0,0-1.68-3.74Z"/><path class="cls-2" d="M287.65,70.4V31.66H271.82l-3.33.51c-.38.15-.59.1-.63-.18a15.62,15.62,0,0,1-.56-2c-.08-.26.13-.34.62-.23l3.9.4h31.5a1.35,1.35,0,0,0,1.09-.56c1-1.4,2.06-2.8,3.22-4.19a.88.88,0,0,1,1.19-.11,21,21,0,0,1,5.82,5.2c.27.3.34.56.23.79a1,1,0,0,1-1,.4h-20V70.4H306a1.28,1.28,0,0,0,1.09-.57c1-1.4,2.05-2.78,3.22-4.18a.87.87,0,0,1,1.19-.12,20.6,20.6,0,0,1,5.83,5.21c.27.29.34.56.22.78a1,1,0,0,1-1,.41H269.11l-3.34.5c-.37.15-.58.1-.62-.17a15.34,15.34,0,0,1-.56-2c-.08-.26.13-.34.61-.22l3.91.4Z"/><path class="cls-2" d="M342.36,48.11v27a2.12,2.12,0,0,1-1.41,2,4.49,4.49,0,0,1-3.74-.17,2,2,0,0,1-1-1.92V57.73a19.28,19.28,0,0,1-7.06,10.52c-.42.26-.75.26-1,0a.65.65,0,0,1,0-.91,76.8,76.8,0,0,0,7.92-24.83h-4l-3.68.46c-.26.11-.41,0-.45-.18-.15-.63-.3-1.3-.44-2,0-.19.13-.27.5-.22l4.07.39h4.13V31.2a70.84,70.84,0,0,1-7.12.67c-.57,0-.85-.07-.85-.33a.62.62,0,0,1,.5-.63q10.14-3.45,14.71-7.24c.41-.38.75-.49,1-.34a24,24,0,0,1,5.32,3.28c.8.68,1.09,1.27.8,1.76s-.82.54-1.76.39q-.94-.15-6.55,1.42V41h.57a1,1,0,0,0,.85-.45,28.44,28.44,0,0,1,2.26-3.17.71.71,0,0,1,1.19-.22,14.6,14.6,0,0,1,3.38,3.76A1.1,1.1,0,0,1,350.8,42q-.17.45-.84.45h-7.65v3.57l.52.11A11.09,11.09,0,0,1,349.89,52a4.69,4.69,0,0,1-.11,3.4,2.52,2.52,0,0,1-2.18,1.8,2.63,2.63,0,0,1-2.55-.79,3.77,3.77,0,0,1-1-2.77A11.65,11.65,0,0,0,342.36,48.11Zm18.56,25.68V62.86H354l-3.33.52c-.38.14-.59.08-.62-.18a14.22,14.22,0,0,1-.57-2c-.08-.26.13-.35.62-.23l3.9.39h6.9v-8a78.61,78.61,0,0,1-9.31.77c-.39,0-.59-.19-.63-.45a.51.51,0,0,1,.52-.57q12.31-3.15,18.77-7.47a1.27,1.27,0,0,1,.85-.22,28.68,28.68,0,0,1,5.6,3.49c.68.49.91,1,.68,1.46a1.11,1.11,0,0,1-1.25.41q-.61,0-9.09,1.69v8.88h1.23a1.09,1.09,0,0,0,1-.52c.95-1.23,1.95-2.48,3-3.72a.76.76,0,0,1,1.06-.15l0,0a18.65,18.65,0,0,1,5.09,4.69c.27.31.34.57.22.8a1,1,0,0,1-1,.39H367.08V73.78h3.72a1.06,1.06,0,0,0,1-.51q1.42-1.87,3-3.73a.74.74,0,0,1,1.05-.14l0,0A18.07,18.07,0,0,1,381,74.12c.26.3.34.56.23.79a1,1,0,0,1-1,.39H350.45l-3.34.51c-.37.16-.58.09-.61-.17a14.22,14.22,0,0,1-.57-2c-.07-.26.13-.34.62-.23l3.9.4Zm-3.45-32.41v1.1a2.34,2.34,0,0,1-1,2.09,5.86,5.86,0,0,1-2.83.8,3.14,3.14,0,0,1-1.86-.51,2,2,0,0,1-.4-1.53V24.13c0-.37.08-.54.23-.5a18.09,18.09,0,0,1,5.94,2.18h12.58c.11-.07.81-.73,2.08-2a.56.56,0,0,1,.63-.06,21.59,21.59,0,0,1,5.32,2.78c1.09.79.9,1.52-.45,2.18a1.1,1.1,0,0,0-.57,1V42.63a2,2,0,0,1-1,1.64,7,7,0,0,1-2.9.73,2.09,2.09,0,0,1-1.8-.68,2.58,2.58,0,0,1-.39-1.69V41.38Zm0-1.52h13.68V27.7c-.15-.34-.36-.46-.62-.34H357.69l-.18.06Z"/><g class="cls-3"><path class="cls-2" d="M159,106.62h-5.39v2.49c0,1.43-.8,2.15-2.39,2.15-.62,0-1.41,0-2.37-.05l-.61-1.27q.81,0,2,0a6,6,0,0,0,1.75-.13.53.53,0,0,0,.25-.51v-2.71H136.79v-1.2h15.47v-1.29h1.36v1.29H159Zm-.34-14.93H148.61v1.76h8.08v7h-1.34a18.89,18.89,0,0,1,3.12,3.43l-1.07.74a11.44,11.44,0,0,0-1.22-1.54q-10.32.8-18.54.83l-.33-1.19q4.65,0,10-.2V100.4h-8.13v-7h8.13V91.69H137.13V90.51h10.15V88.93h1.33v1.58h10.06Zm-11.39,4.62V94.6h-6.8v1.71Zm0,2.94V97.44h-6.8v1.81Zm-1.66,10.27-.85,1A19.28,19.28,0,0,0,141,108l.85-1A18.31,18.31,0,0,1,145.62,109.52Zm9.76-13.21V94.6h-6.77v1.71Zm0,2.94V97.44h-6.77v1.81Zm-.3,2.69a12.8,12.8,0,0,0-1-.9l.84-.64h-6.36v2C151.29,102.26,153.45,102.1,155.08,101.94Z"/><path class="cls-2" d="M189.69,104.82H179.31v6.5H178v-6.5H167.44v-1.27H178v-2.1h-9.38v-1.2H178v-2H168V97h6.68a10.64,10.64,0,0,0-1.44-2l1-.61h-6.81V93.11h8.44V89h1.31v4.13h2.88V89h1.28v4.13h8.29V94.4H183l.93.63a9,9,0,0,1-1.28,2h6.47v1.24h-9.79v2h9.18v1.2h-9.18v2.1h10.38Zm-14,2a27.25,27.25,0,0,1-7.31,3.9l-.85-1.12a24.59,24.59,0,0,0,7.19-3.66Zm-2.41-14.88-1.12.66A17.06,17.06,0,0,0,169.64,90l1.16-.8A19.33,19.33,0,0,1,173.27,91.89Zm9.39,2.51h-8.1A20.55,20.55,0,0,1,176.24,97h4.81A11.46,11.46,0,0,0,182.66,94.4Zm7.05,15.46-.76,1a47.46,47.46,0,0,0-7.46-4l.76-1A45.27,45.27,0,0,1,189.71,109.86Zm-2.07-20a12.44,12.44,0,0,1-2.58,2.65l-1.18-.66a17.45,17.45,0,0,0,2.56-2.58Z"/><path class="cls-2" d="M210.83,100.74a1.43,1.43,0,0,1,1.44,1.46,1.46,1.46,0,0,1-.41,1,1.45,1.45,0,0,1-2.06,0,1.43,1.43,0,0,1-.42-1,1.45,1.45,0,0,1,1.45-1.46Z"/><path class="cls-2" d="M239.69,92.76h-7.55V91.48h3.28a9.42,9.42,0,0,0-1-2.4l1.2-.46a13.67,13.67,0,0,1,1.28,2.86h2.84Zm-.53,3.73H232.7V95.16h6.46Zm0,3.64H232.7V98.84h6.46Zm-.42,10.37h-1.31v-1.39h-3.27v2h-1.27v-8.56h5.85Zm-1.31-2.64v-4h-3.27v4Zm16.88-1.66a13.85,13.85,0,0,1-.79,3.66c-.36.86-.87,1.3-1.55,1.3q-1.8,0-2.75-4.42a22.84,22.84,0,0,1-3.76,3.81l-.89-1a20.94,20.94,0,0,0,4.32-4.46Q248.2,100,248,94.18h-5.66v3.23h4.12c0,2.43,0,4.38,0,5.84a14.29,14.29,0,0,1-.2,2.69,1.48,1.48,0,0,1-.63.8,3.09,3.09,0,0,1-1.6.31,5.93,5.93,0,0,1-.84-.06l-.31-1.3q.38,0,1.56,0c.42,0,.65-.34.71-1s.06-2.69,0-6h-2.85q0,8.07-1.52,12.32l-1.26-.59A37.13,37.13,0,0,0,241,98.89v-6h6.9c0-.7-.05-2-.05-4h1.28l.07,4h5.07v1.27h-5a74.21,74.21,0,0,0,.71,8.95,31.21,31.21,0,0,0,2.54-6.59l1.2.69a35.21,35.21,0,0,1-3.49,8,15.23,15.23,0,0,0,.73,3,8.2,8.2,0,0,0,.55,1.28.44.44,0,0,0,.35.15.43.43,0,0,0,.35-.15,5.57,5.57,0,0,0,.41-1.47,22.44,22.44,0,0,0,.41-2.48Zm-.69-14.44-1.18.71a12.18,12.18,0,0,0-1.61-2.53l1-.66A10.71,10.71,0,0,1,253.62,91.76Z"/><path class="cls-2" d="M269.23,89.35c-.24.78-.6,1.73-1.07,2.86l-.71,1.65v17.49h-1.3v-15a33.4,33.4,0,0,1-2.87,4l-.69-1.23A29.5,29.5,0,0,0,268,88.89ZM285,93.17H269.21V91.86h7.16a9.72,9.72,0,0,0-1.15-2.51l1.25-.48a13,13,0,0,1,1.27,3H285Zm-1.2,3.74H270.2V95.65h13.56Zm0,3.85H270.2V99.5h13.56Zm-.41,10.61h-1.28v-1.21H271.81v1.21h-1.32v-8h12.86Zm-1.28-2.51v-4.22H271.81v4.22Z"/><path class="cls-2" d="M306.18,100.74a1.43,1.43,0,0,1,1.44,1.46,1.43,1.43,0,0,1-.42,1,1.37,1.37,0,0,1-1,.43,1.4,1.4,0,0,1-1-.43,1.43,1.43,0,0,1-.42-1,1.36,1.36,0,0,1,.43-1A1.39,1.39,0,0,1,306.18,100.74Z"/><path class="cls-2" d="M336.75,99.3a9.37,9.37,0,0,1-1.17,2.69,14.53,14.53,0,0,1-3.09,3.9,23.4,23.4,0,0,1-4.35,3.07l-.85-1.2q6-3.21,7.85-8.15h-6.9V98.25h8.51ZM350,107.84l-.93,1.1A24.85,24.85,0,0,1,340,99.05v10.2a1.8,1.8,0,0,1-.41,1.18,1.89,1.89,0,0,1-.87.64,14.32,14.32,0,0,1-2.69.14c-.59,0-1.16,0-1.69,0l-.59-1.45q1.29.06,2.61.06a13.43,13.43,0,0,0,1.81-.07c.28,0,.41-.3.41-.74V95.13h-7.31V93.79H340v1.58A14,14,0,0,0,342,100,27.15,27.15,0,0,0,348.48,94l1,.95a28.67,28.67,0,0,1-6.75,6.13A23.68,23.68,0,0,0,350,107.84ZM343.41,91.5l-.61,1.31A44.51,44.51,0,0,0,334,89.92l.63-1.2A45.52,45.52,0,0,1,343.41,91.5Z"/><path class="cls-2" d="M360.65,105.23a35.05,35.05,0,0,1-1.39,6l-1.2-.4a30.69,30.69,0,0,0,1.39-5.87Zm5.78-2.07-1.2.44a7.49,7.49,0,0,0-.24-1c-2,.62-4.13,1.17-6.37,1.63l-.34-1.22a37.29,37.29,0,0,0,4.31-6,37.51,37.51,0,0,1-3.92.54l-.27-1.15a35.13,35.13,0,0,0,3.88-7.68l1.18.56A38.11,38.11,0,0,1,360,96.11c1-.1,2.12-.27,3.34-.49A28,28,0,0,0,365,92.3l1.12.59a46.72,46.72,0,0,1-6.15,9.73c1.53-.32,3.07-.73,4.63-1.22a9.34,9.34,0,0,0-.65-1.84l1.15-.38A27.43,27.43,0,0,1,366.43,103.16Zm-3,7.19-1.25.3a29.8,29.8,0,0,0-.46-5.34l1.12-.23A35.38,35.38,0,0,1,363.41,110.35Zm3-2.12-1.15.38a17.63,17.63,0,0,0-1.16-3.84l1.07-.38A14.81,14.81,0,0,1,366.38,108.23Zm12.24-.56h-7.39l.69.83a27.5,27.5,0,0,1-5.62,2.8l-.82-1a31.29,31.29,0,0,0,5.46-2.68h-3.22v-8h10.9Zm1.76-16.27h-6.59v1.36h5.67v1H367v-1h5.49V91.4H366V90.33h6.49v-1.4h1.26v1.4h6.59Zm-.66,7.12H366.53V95h13.19Zm-9.29-1V96h-2.71v1.46Zm7,4.5v-1.23H369V102Zm0,2.29V103H369v1.27Zm0,2.34v-1.29H369v1.29Zm-2.89-9.13V96h-2.83v1.46Zm5.93,12.81-.71,1a31,31,0,0,0-5.22-2.15l.74-1A26.51,26.51,0,0,1,380.43,110.3Zm-2-12.81V96H375.7v1.46Z"/></g></svg>