<svg id="e6be4b31-93a8-4299-a489-d3be85ea422c" data-name="圖層 1" xmlns="http://www.w3.org/2000/svg" viewBox="0 0 89.7 82.95"><defs><style>.bd8d323a-01ee-4b06-9316-ef6d743ab69a{fill:#fff;fill-rule:evenodd;}</style></defs><title>footerLogo</title><path class="bd8d323a-01ee-4b06-9316-ef6d743ab69a" d="M43,59.83c7.63,5.31,15.44,10,26.88,12.46,3.72.85,7.9,1.39,10.23-.54a6.48,6.48,0,0,0,1.67-2.53c1.11-3.16.19-6.47-1.21-9.54A45.08,45.08,0,0,0,77,53.22V49.53c6.23,6.53,12.18,13.22,12.64,22.15.19,3.76-.55,8-3.71,9.92-2,1.23-5.12,1.46-8,1.31-6.14-.39-11.25-2.85-16.18-5.54C44,68,25.32,53.78,12.86,40,8.72,35.44,3.81,29.78,0,24.93L20.77,43.06C28,48.67,35.05,54.25,43,59.83Z"/><path class="bd8d323a-01ee-4b06-9316-ef6d743ab69a" d="M4.58,36.87c14,14.35,30.19,30.29,47.67,40C56.11,79,60.19,81,64.37,83H39.27c-2.89-3-5.79-6-8.58-9.14-9-10-16.52-20.93-23.92-33.35Z"/><path class="bd8d323a-01ee-4b06-9316-ef6d743ab69a" d="M20.77,40.18h0V34.86l19.32-9.61V55l11.45,7.78,13.2-6.7V68.8c1.63.49,3.33.93,5.13,1.32a25.61,25.61,0,0,0,5.86.76V22.72l-11,7.45v22.1L51.54,59V29.14l-11.45-7.7L20.77,31V4.4L43,15v6.51l3.36,2.26V12.25L20.77,0,7.58,8.87V28.6Z"/><path class="bd8d323a-01ee-4b06-9316-ef6d743ab69a" d="M64.74,80.76V83H71A27.34,27.34,0,0,1,64.74,80.76Z"/><path class="bd8d323a-01ee-4b06-9316-ef6d743ab69a" d="M7.58,45.47V82.93H20.77V65.34C16.15,59.13,11.84,52.54,7.58,45.47Z"/></svg>