<svg id="b52c1557-11bc-4579-b3bd-dc4c0dde5852" data-name="圖層 1" xmlns="http://www.w3.org/2000/svg" viewBox="0 0 115.89 132.86"><defs><style>.a582e1c0-a06b-41a2-bda4-c8d673c47652{fill:#231815;}.b712e533-d981-423b-9d4b-597ab72423eb{fill:#51a0bf;}.b1c77311-fdd6-45b6-98a4-e7da8358610e,.b1f13230-ea6d-4c2d-8be8-2a620eb09371,.b712e533-d981-423b-9d4b-597ab72423eb{fill-rule:evenodd;}.b1f13230-ea6d-4c2d-8be8-2a620eb09371{fill:#008585;}.b1c77311-fdd6-45b6-98a4-e7da8358610e{fill:#004663;}.a821efee-176a-49e3-8e23-fb443808eee5{fill:#717071;}</style></defs><title>logo</title><path class="a582e1c0-a06b-41a2-bda4-c8d673c47652" d="M6.59,97.11a4.8,4.8,0,0,1-1,3.15,2.23,2.23,0,0,1-1.41.46,1.5,1.5,0,0,1-1.1-.64A1.53,1.53,0,0,1,3,98.77,1.87,1.87,0,0,1,4,97.7a4.28,4.28,0,0,0,2.07-2.48q0-.18.15-.18c.1,0,.16.08.18.2a5.19,5.19,0,0,1,.16,1l1.48.08h5.4V92.84a3.89,3.89,0,0,0,0-.44c0-.07.06-.1.18-.1a13.87,13.87,0,0,1,2.94.38c.36.14.54.29.54.46s-.16.41-.49.52-.3.18-.28.35v2.31h5.86a.71.71,0,0,0,.41-.21,5,5,0,0,1,1-.74.57.57,0,0,1,.44,0,12.44,12.44,0,0,1,2.6,1.71.6.6,0,0,1,.16.59.8.8,0,0,1-.64.2.84.84,0,0,0-.39,0c-1.45,1-2.76,1.74-3.93,2.36-.24,0-.39,0-.44,0a.42.42,0,0,1,0-.41A21.52,21.52,0,0,0,22.73,97H8.05Zm3.17,5.83H5.7l-1.51.23c-.17.07-.27,0-.29-.08a7.2,7.2,0,0,1-.25-.92c0-.11.06-.15.28-.1l1.77.18H9.89q.25-1.64.36-3.27c0-.31,0-.59.05-.85s.06-.24.18-.25a18.31,18.31,0,0,1,3,.48c.41.1.61.26.61.46s-.15.34-.46.46a.4.4,0,0,0-.31.39c-.15.78-.33,1.64-.53,2.58h8.31a.58.58,0,0,0,.51-.25c.44-.64.93-1.27,1.46-1.9a.4.4,0,0,1,.54,0,9.57,9.57,0,0,1,2.63,2.35c.12.14.15.26.1.36a.45.45,0,0,1-.43.18H12.6a40.73,40.73,0,0,1-2.38,6.78A14,14,0,0,1,3.44,116c-.15,0-.23,0-.25-.05s.05-.24.25-.36A19.16,19.16,0,0,0,9.76,102.94Zm11.62,9.9a70.65,70.65,0,0,1-10.67,3.1q-.75.18-.84.48c-.12.31-.3.46-.52.46s-.36-.2-.48-.66c-.21-.79-.39-1.67-.57-2.66,0-.19.09-.28.31-.26,1.33,0,2.64,0,3.92,0a22.33,22.33,0,0,0,2.17-8.67.16.16,0,0,1,.2-.16,11.59,11.59,0,0,1,2.89.74c.35.16.52.32.52.49s-.19.28-.46.33-.27.11-.29.23a23.29,23.29,0,0,1-4.11,7A69.38,69.38,0,0,0,21,112.23a6,6,0,0,0-1.94-2.15.24.24,0,0,1-.1-.31c0-.12.12-.17.28-.15,3,.85,4.89,2.39,5.78,4.6a2.26,2.26,0,0,1,.05,1.72,1.3,1.3,0,0,1-1,1,1.43,1.43,0,0,1-1.33-.3,2.16,2.16,0,0,1-.59-1.38A8.53,8.53,0,0,0,21.38,112.84Z"/><path class="a582e1c0-a06b-41a2-bda4-c8d673c47652" d="M47.45,113a13.1,13.1,0,0,1-2-4.86h-5v1.51q1.45-.39,2.94-.87c.17-.07.28,0,.33,0s0,.21-.13.33a26.09,26.09,0,0,1-3.14,1.67V114a3.57,3.57,0,0,1-.39,1.84c-.52.87-1.56,1.3-3.09,1.3-.17,0-.26-.11-.26-.23a2.36,2.36,0,0,0-1.56-2.38.27.27,0,0,1-.18-.28.19.19,0,0,1,.23-.15q1.13,0,1.92,0c.46,0,.69-.21.69-.64v-1.61l-3.19,1.1c-.46.16-.7.32-.72.49s-.23.44-.44.46-.34-.16-.46-.54a17.22,17.22,0,0,1-.74-2.32c0-.18.05-.26.26-.26a48.53,48.53,0,0,0,5.29-.54v-2.07H33.9l-1.51.23c-.17.07-.27,0-.29-.08a7.68,7.68,0,0,1-.25-.92c0-.12.06-.15.28-.1l1.77.18h3.88v-1.56a35.34,35.34,0,0,1-4.68.51c-.15,0-.24-.06-.25-.18s.06-.21.23-.23a28.9,28.9,0,0,0,7.31-3.07H34l-1.51.23c-.17.07-.27,0-.28-.08a5.85,5.85,0,0,1-.26-.92c0-.11.06-.15.28-.1l1.77.18h8.18v-2.07H36.45l-1.51.23c-.17.07-.26,0-.28-.08a6.18,6.18,0,0,1-.25-.92c0-.12.06-.15.28-.1l1.76.18h5.73V97.42H35l-1.51.23c-.17.06-.26,0-.28-.08a8.23,8.23,0,0,1-.26-.92c0-.12.06-.15.29-.1l1.76.18h3.89a2.26,2.26,0,0,1-.72-1.36,3.39,3.39,0,0,0-1.25-2.56.29.29,0,0,1-.08-.25.18.18,0,0,1,.23-.13l.85.13a4.06,4.06,0,0,1,2.81,1.84,2.07,2.07,0,0,1,.08,1.53,1.45,1.45,0,0,1-.59.8h4.91a18.84,18.84,0,0,0,1.28-4.23c0-.17.08-.24.23-.23.84.18,1.65.39,2.43.64q.69.18.66.57c0,.25-.21.39-.53.41a.76.76,0,0,0-.54.35,12.38,12.38,0,0,1-2.63,2.49h3.3a.54.54,0,0,0,.46-.23,18.43,18.43,0,0,1,1.38-1.77.37.37,0,0,1,.51,0,7.8,7.8,0,0,1,2.4,2.2c.12.14.16.25.11.36a.47.47,0,0,1-.44.18H45v2.07h3.23a.47.47,0,0,0,.4-.21c.4-.53.82-1,1.28-1.56a.3.3,0,0,1,.44,0,7.34,7.34,0,0,1,2.1,1.94c.12.14.15.26.1.36a.47.47,0,0,1-.44.18H45v2.07h5.83a.5.5,0,0,0,.44-.23c.43-.56.88-1.12,1.36-1.69a.34.34,0,0,1,.48,0,8.35,8.35,0,0,1,2.3,2.12c.12.14.16.26.11.36a.47.47,0,0,1-.44.18H41.26a15.87,15.87,0,0,1,1.9,1.18c.25.22.34.42.28.59a.57.57,0,0,1-.49.18,12.35,12.35,0,0,0-2.53.51v2.07H45.3a21.12,21.12,0,0,1-.38-2.79c0-.37-.08-.72-.13-1.05,0-.18.06-.27.23-.25a16.47,16.47,0,0,1,2.74.43.46.46,0,0,1,.31.31c0,.19-.11.38-.41.59a.65.65,0,0,0-.21.69,12.74,12.74,0,0,0,.28,2.07h3.18a.5.5,0,0,0,.41-.21c.39-.52.81-1,1.27-1.56a.3.3,0,0,1,.44,0,7.34,7.34,0,0,1,2.1,1.94c.12.14.15.26.1.36s-.21.18-.44.18H47.86a11.85,11.85,0,0,0,1.2,3.09A15.58,15.58,0,0,0,50.5,109c0-.1.1-.13.2-.08a14.52,14.52,0,0,1,2.3,1.23c.28.21.38.39.31.56a.48.48,0,0,1-.51.21.45.45,0,0,0-.41.2,20.79,20.79,0,0,1-1.84,1.77c1.19.94,2.07,1.38,2.63,1.33.39-.14.85-1.13,1.36-3,.08-.22.2-.32.36-.31s.24.22.23.49c-.14,2.13,0,3.32.33,3.58A1.53,1.53,0,0,1,56,116.6a1.39,1.39,0,0,1-1.31.74,6.5,6.5,0,0,1-3.4-1,12.48,12.48,0,0,1-2.71-2,19.12,19.12,0,0,1-6.73,2.53c-.14,0-.21,0-.23-.13a.15.15,0,0,1,.15-.2A21,21,0,0,0,47.45,113Zm1-9.29a.23.23,0,0,1-.13-.25.19.19,0,0,1,.23-.13,4.76,4.76,0,0,1,.64,0,3.41,3.41,0,0,1,2.41.94,2.21,2.21,0,0,1,.2,1.46,1.18,1.18,0,0,1-.77,1,1.2,1.2,0,0,1-1.17-.16,1.79,1.79,0,0,1-.64-1.1A2.56,2.56,0,0,0,48.45,103.73Z"/><path class="a582e1c0-a06b-41a2-bda4-c8d673c47652" d="M71,114.12V96.6H63.83l-1.51.23c-.17.07-.26,0-.28-.08a8.23,8.23,0,0,1-.25-.92c0-.12.06-.15.28-.1l1.76.18H78.08a.59.59,0,0,0,.51-.26c.45-.63.93-1.26,1.46-1.89a.39.39,0,0,1,.54-.05,9.28,9.28,0,0,1,2.63,2.35c.12.14.16.26.11.36a.47.47,0,0,1-.44.18h-9v17.52h5.47a.59.59,0,0,0,.51-.26c.45-.63.93-1.26,1.46-1.89a.41.41,0,0,1,.54,0,9.43,9.43,0,0,1,2.63,2.35c.12.14.15.26.1.36s-.21.18-.43.18H62.61L61.1,115c-.17.07-.27,0-.28-.08a6.18,6.18,0,0,1-.26-.92c0-.12.06-.15.28-.1l1.77.18Z"/><path class="a582e1c0-a06b-41a2-bda4-c8d673c47652" d="M95.74,104v12.23a1,1,0,0,1-.64.92,2,2,0,0,1-1.69-.08.88.88,0,0,1-.43-.87v-7.85a8.71,8.71,0,0,1-3.2,4.76c-.19.12-.34.12-.46,0a.3.3,0,0,1,0-.41,34.8,34.8,0,0,0,3.58-11.23H91.11l-1.66.2c-.12.05-.19,0-.2-.07q-.1-.44-.21-.9c0-.08.06-.12.23-.1l1.84.18H93V96.39c-1.42.19-2.49.29-3.22.31q-.39,0-.39-.15c0-.14.06-.23.23-.28A21.69,21.69,0,0,0,96.25,93c.19-.17.35-.22.46-.15a10.69,10.69,0,0,1,2.41,1.48c.36.31.48.57.36.79s-.37.25-.8.18l-2.94.64v4.89H96a.46.46,0,0,0,.38-.21,14,14,0,0,1,1-1.43c.13-.24.31-.27.53-.1a6.58,6.58,0,0,1,1.51,1.71.49.49,0,0,1,.13.51c0,.14-.18.21-.38.21H95.74v1.61l.23,0a5.05,5.05,0,0,1,3.2,2.66,2.21,2.21,0,0,1,0,1.54,1.17,1.17,0,0,1-1,.82,1.21,1.21,0,0,1-1.15-.36,1.71,1.71,0,0,1-.46-1.26A5.33,5.33,0,0,0,95.74,104Zm8.42,11.62v-4.94H101l-1.51.23c-.17.07-.27,0-.28-.08A8.23,8.23,0,0,1,99,110c0-.12.06-.15.28-.1L101,110h3.12v-3.61a36.16,36.16,0,0,1-4.22.33c-.17,0-.27-.08-.28-.2s.06-.24.23-.26a28.44,28.44,0,0,0,8.49-3.37.59.59,0,0,1,.38-.11,13.27,13.27,0,0,1,2.51,1.59c.31.22.41.44.31.66s-.29.23-.57.18-1.56.26-4.11.77v4h.56a.49.49,0,0,0,.43-.23c.43-.57.88-1.13,1.36-1.69a.33.33,0,0,1,.48,0,8.39,8.39,0,0,1,2.31,2.12c.12.14.15.26.1.36s-.21.18-.44.18h-4.8v4.94h1.68a.49.49,0,0,0,.44-.24c.42-.56.88-1.12,1.35-1.68a.34.34,0,0,1,.49,0,8.2,8.2,0,0,1,2.3,2.12c.12.14.16.25.11.36a.47.47,0,0,1-.44.18H99.4l-1.51.23c-.17.06-.26,0-.28-.08a8.23,8.23,0,0,1-.26-.92c0-.12.06-.16.29-.1l1.76.18ZM102.6,101v.51a1.09,1.09,0,0,1-.44.95,2.58,2.58,0,0,1-1.28.35,1.39,1.39,0,0,1-.84-.23.84.84,0,0,1-.18-.69V93.2c0-.17,0-.25.1-.23a8.11,8.11,0,0,1,2.69,1h5.68s.36-.33.94-.89a.25.25,0,0,1,.29,0A9.47,9.47,0,0,1,112,94.3c.48.35.41.69-.2,1a.48.48,0,0,0-.26.46v5.81a.88.88,0,0,1-.44.74,3.17,3.17,0,0,1-1.3.33,1,1,0,0,1-.82-.3,1.28,1.28,0,0,1-.18-.77V101Zm0-.69h6.16v-5.5c-.07-.16-.16-.21-.28-.16h-5.8l-.08,0Z"/><path class="b712e533-d981-423b-9d4b-597ab72423eb" d="M55.81,58.81C63.3,64,71,68.63,82.22,71.05c3.66.83,7.77,1.36,10-.53A6.47,6.47,0,0,0,93.92,68c1.09-3.1.18-6.35-1.19-9.38a44,44,0,0,0-3.47-6.34V48.68c6.12,6.42,12,13,12.43,21.77.18,3.7-.55,7.86-3.66,9.75-2,1.21-5,1.44-7.86,1.29-6-.38-11.06-2.8-15.9-5.45C56.81,66.82,38.43,52.86,26.18,39.33,22.12,34.84,17.3,29.27,13.55,24.5L34,42.33c7.11,5.51,14,11,21.85,16.48Z"/><path class="b1f13230-ea6d-4c2d-8be8-2a620eb09371" d="M18.05,36.24C31.77,50.34,47.72,66,64.9,75.51c3.8,2.09,7.8,4.1,11.92,6H52.15c-2.85-3-5.69-5.93-8.43-9C34.86,62.69,27.48,52,20.21,39.76Z"/><path class="b1c77311-fdd6-45b6-98a4-e7da8358610e" d="M34,39.49h0V34.26l19-9.44V54.08l11.26,7.65,13-6.59V67.62c1.61.48,3.27.92,5,1.3a25.23,25.23,0,0,0,5.76.75V22.33l-10.8,7.32V51.38l-13,6.56V28.64L53,21.07l-19,9.4V4.32L55.79,14.78v6.39l3.31,2.22V12L34,0,21,8.72V28.11Z"/><path class="b1c77311-fdd6-45b6-98a4-e7da8358610e" d="M77.18,79.38v2.15h6.1A27,27,0,0,1,77.18,79.38Z"/><path class="b1c77311-fdd6-45b6-98a4-e7da8358610e" d="M21,44.69V81.51H34V64.22C29.42,58.12,25.18,51.64,21,44.69Z"/><path class="a821efee-176a-49e3-8e23-fb443808eee5" d="M.61,131.83v.92H0v-4.63q0-.21.21-.21H3.52a.19.19,0,0,1,.22.21v4.63H3.12v-.92Zm0-.61H3.12V128.6s0-.08-.09-.08H.7c-.07,0-.09,0-.09.08Zm7-4.32H1.12c-.05,0-.08,0-.08-.1v-3.18c0-.06,0-.08.08-.08H7.56c.06,0,.09,0,.09.08v3.18C7.65,126.87,7.62,126.9,7.56,126.9ZM7,124.15H1.68s0,0,0,0v2.08s0,0,0,0H7s.06,0,.06,0v-2.06A0,0,0,0,0,7,124.15Zm-1.45,7.68v.92H4.91v-4.63q0-.21.21-.21H8.43c.15,0,.22.07.22.21v4.63H8v-.92Zm0-.61H8V128.6s0-.08-.1-.08H5.61c-.06,0-.09,0-.08.08Z"/><path class="a821efee-176a-49e3-8e23-fb443808eee5" d="M12.74,125.07H11.43a3,3,0,0,1-.74,1.59l-.51-.46a1.93,1.93,0,0,0,.64-1.32v-1.25c0-.13,0-.2.16-.21a20.51,20.51,0,0,0,3.17-.32l.2.58a19.24,19.24,0,0,1-2.82.33c-.07,0-.1,0-.09.11v.33H15v.62H13.35v1.18h-.61Zm4,6.28H13.42l.2.43a8.33,8.33,0,0,1-3.07,1l-.24-.62a8.74,8.74,0,0,0,3-.8h-2c-.11,0-.16-.06-.16-.17v-4.45a.13.13,0,0,1,.15-.15h7.44c.12,0,.18,0,.18.16v4.44a.16.16,0,0,1-.18.17H17a14.68,14.68,0,0,1,2.58.93l-.22.58a15.39,15.39,0,0,0-2.81-1Zm-5-3.4h6.55v-.74a.08.08,0,0,0-.08,0H11.75l0,0Zm0,1.37h6.55v-.76H11.73Zm6.55.62H11.73v.77s0,0,0,0H18.2a.07.07,0,0,0,.08-.07ZM17.69,125H16.16a2.45,2.45,0,0,1-.84,1.47l-.48-.49a1.68,1.68,0,0,0,.73-1.21v-1.2c0-.14.06-.21.17-.21a21.73,21.73,0,0,0,3.16-.24l.19.59a20.44,20.44,0,0,1-2.81.24c-.07,0-.1,0-.09.11v.33H19.7V125H18.31v1.32h-.62Z"/><path class="a821efee-176a-49e3-8e23-fb443808eee5" d="M25,127.16h1.29v1.38H25Z"/><path class="a821efee-176a-49e3-8e23-fb443808eee5" d="M34.3,130a16.11,16.11,0,0,1-2.39,2.74l-.48-.4.28-.26a19.52,19.52,0,0,0,2.18-2.6,18.24,18.24,0,0,0-1.53-1.76,8,8,0,0,1-.5.62l-.44-.41a7.26,7.26,0,0,0,1.39-2.56l.58.21a9.24,9.24,0,0,1-.7,1.62,16.68,16.68,0,0,1,1.53,1.71,11.56,11.56,0,0,0,1-2.38,8.48,8.48,0,0,0-.54-.87l.53-.31a11.43,11.43,0,0,1,.69,1.08s0,0,0,0c.16.31.33.65.5,1l-.55.28c-.09-.17-.16-.32-.23-.47a15.69,15.69,0,0,1-1,2.12c.51.66,1,1.38,1.55,2.17l-.51.34C35.18,131.17,34.72,130.53,34.3,130Zm-.58-5.72v-1.08h.62v1.08H36.4v.62H31.52v-.62Zm3.56,2.91a11.78,11.78,0,0,1-.43,1.17l-.63-.13a11,11,0,0,0,1-5.07h.61c0,.38,0,.74,0,1.08h3.3v.62H40.6a12.45,12.45,0,0,1-1.57,5.3l.09.12a10.61,10.61,0,0,0,2.06,2.16l-.57.4a14.17,14.17,0,0,1-2-2.11,8.36,8.36,0,0,1-2.4,2.07l-.43-.46a8.53,8.53,0,0,0,2.46-2.19A11.29,11.29,0,0,1,37.28,127.15Zm.83.83a7.12,7.12,0,0,0,.57,1.53c.28-.52.49-.95.63-1.28a13,13,0,0,0,.67-3.41H37.72A7.82,7.82,0,0,0,38.11,128Z"/><path class="a821efee-176a-49e3-8e23-fb443808eee5" d="M46.67,130.94H42.05v-.62h4.62v-1l-2,.27L44.5,129l.66-.09a14.41,14.41,0,0,0,1.39-1.46,10.7,10.7,0,0,0-1.8-1.63l.33-.52a4.53,4.53,0,0,1,.59.45c.27-.44.54-.91.79-1.41H42.34v-.62h4.37v-.79h.62v.79h4.22v.62h-4.4c-.26.49-.61,1.09-1,1.81.24.23.51.51.81.83a9.11,9.11,0,0,0,1.18-2l.57.23a10.49,10.49,0,0,1-2.55,3.54l2.31-.33-.47-.84.54-.27a20.21,20.21,0,0,1,1.15,2.19l-.56.24c-.1-.23-.21-.47-.34-.73l-1.45.21v1.11H52v.62H47.29v1.89h-.62Zm-1.81-3.69.44.43a17.48,17.48,0,0,1-2.63,1.9l-.4-.48A15.71,15.71,0,0,0,44.86,127.25Zm-2-1.86.47-.4a8.83,8.83,0,0,1,1.19,1.51l-.5.38A10.67,10.67,0,0,0,42.83,125.39Zm7.87-.66.44.45a10.11,10.11,0,0,1-1.62,1.49l-.4-.46A9.76,9.76,0,0,0,50.7,124.73Zm-1.44,2.87.39-.49a12.21,12.21,0,0,1,2,1.7l-.41.46A12.87,12.87,0,0,0,49.26,127.6Z"/><path class="a821efee-176a-49e3-8e23-fb443808eee5" d="M56.94,127.16h1.29v1.38H56.94Z"/><path class="a821efee-176a-49e3-8e23-fb443808eee5" d="M66.16,127.77H63.49v-.61h3.14a10.94,10.94,0,0,0,.88-1.65l.52.34a10.6,10.6,0,0,1-.68,1.31H73v.61H71.16a6.16,6.16,0,0,1-2,3.22l3.65,1.35-.37.52-3.86-1.43a9.29,9.29,0,0,1-4.92,1.24l-.18-.62a14.22,14.22,0,0,0,3.06-.36,7.05,7.05,0,0,0,1.27-.56l-3-1.14-.16-.63C65.27,128.76,65.77,128.23,66.16,127.77ZM68,124.2v-1h.61v1H73c.08,0,.12.08.11.21a6.49,6.49,0,0,1-.51,1.94c-.19-.09-.37-.16-.56-.23.12-.36.23-.77.34-1.21,0-.06,0-.09-.08-.09H64.42a.05.05,0,0,0-.06.06v1.44h-.62v-2q0-.12.12-.12Zm-2.42,5.45,2.92,1.08a5.55,5.55,0,0,0,2-3H67a13,13,0,0,1-1.39,1.53c-.08.08-.12.15-.11.21A.19.19,0,0,0,65.57,129.65Z"/><path class="a821efee-176a-49e3-8e23-fb443808eee5" d="M78.87,123.71a12.2,12.2,0,0,1-4.48,3l-.36-.56a14,14,0,0,0,4.6-3.13h.46a15.71,15.71,0,0,0,4.81,3l-.35.55a10.57,10.57,0,0,1-2.47-1.27A16.17,16.17,0,0,1,78.87,123.71Zm-.27,8.15v-2.13h-3v-.61h3v-2H75.27v-.62h7.3v.62H79.22v2h3.06v.61H79.22v2.13h4.27v.62H74.4v-.62Z"/><path class="a821efee-176a-49e3-8e23-fb443808eee5" d="M88.91,127.16H90.2v1.38H88.91Z"/><path class="a821efee-176a-49e3-8e23-fb443808eee5" d="M96.38,130.47v-3h-.91v-.61h.91v-2.64h-.91v-.61h2.46v.61H97v2.64h.89v.61H97v2.65a10.16,10.16,0,0,0,.86-.55l.39.48a16.38,16.38,0,0,1-2.62,1.44l-.34-.52C95.72,130.79,96.08,130.62,96.38,130.47Zm6.3.12a12.62,12.62,0,0,0,1.69-1l.33.52a11,11,0,0,1-1.59,1,5.28,5.28,0,0,0,2.09,1.12l-.39.53a4.5,4.5,0,0,1-3.33-3.46h-.69c-.19.26-.36.48-.5.65v2c.61-.15,1.08-.28,1.39-.39l.18.58a7.57,7.57,0,0,1-1.25.36,19,19,0,0,1-2,.4l-.16-.59,1.18-.22v-1.48a7.93,7.93,0,0,1-1.5.93l-.33-.52a7.09,7.09,0,0,0,2.2-1.67H99s-.08,0-.08-.09v-1.9s0-.08.08-.08h5.48c.06,0,.09,0,.09.08v1.9a.08.08,0,0,1-.09.09h-2.32A4.26,4.26,0,0,0,102.68,130.59Zm-4.55-4.51H105v.61H98.13Zm6.48-.51H98.67s-.08,0-.08-.1v-2s0-.08.08-.08h5.94c.06,0,.09,0,.09.08v2C104.7,125.53,104.67,125.57,104.61,125.57ZM100.5,125V124H99.22a0,0,0,0,0,0,0v.87l0,0Zm3.37,2.86H99.52l0,0v.8s0,0,0,0h4.35a.06.06,0,0,0,0-.06v-.77S103.89,127.81,103.87,127.81ZM102.29,125V124h-1.17V125Zm.62-.92V125H104s.06,0,.06,0v-.85a0,0,0,0,0-.06,0Z"/><path class="a821efee-176a-49e3-8e23-fb443808eee5" d="M107,126.9a8.43,8.43,0,0,1-.68,1l-.38-.5a10.65,10.65,0,0,0,1.76-4.25l.59.17a14.29,14.29,0,0,1-.68,2.31v7.19H107Zm5.28,2.3v3.51h-.62V129.1a10.67,10.67,0,0,1-3.2,2.8l-.45-.51a10.54,10.54,0,0,0,3.32-2.83h-3V128h3.37v-1.26H109c-.06,0-.08,0-.08-.09v-3.11a.07.07,0,0,1,.08-.08h6c.07,0,.1,0,.1.08v3.11c0,.06,0,.09-.1.09h-2.69V128h3.39v.61h-3.13a10.92,10.92,0,0,0,3.35,2.82l-.49.48A12.24,12.24,0,0,1,112.28,129.2ZM114.4,124h-4.85l0,0v2s0,0,0,0h4.85s0,0,0-.06v-2S114.43,124,114.4,124Z"/></svg>