<?xml version="1.0" encoding="utf-8"?>
<!-- Generator: Adobe Illustrator 23.1.0, SVG Export Plug-In . SVG Version: 6.00 Build 0)  -->
<svg version="1.1" id="圖層_1" xmlns="http://www.w3.org/2000/svg" xmlns:xlink="http://www.w3.org/1999/xlink" x="0px" y="0px"
	 viewBox="0 0 115.9 132.9" style="enable-background:new 0 0 115.9 132.9;" xml:space="preserve">
<style type="text/css">
	.st0{fill:#251E1C;}
	.st1{fill-rule:evenodd;clip-rule:evenodd;fill:#6C98B3;}
	.st2{fill-rule:evenodd;clip-rule:evenodd;fill:#49807F;}
	.st3{fill-rule:evenodd;clip-rule:evenodd;fill:#284660;}
	.st4{enable-background:new    ;}
	.st5{fill:#707071;}
</style>
<title>工作區域 7</title>
<g>
	<defs>
		<rect id="SVGID_1_" x="-901.5" y="705.9" width="1920" height="481.3"/>
	</defs>
	<clipPath id="SVGID_2_">
		<use xlink:href="#SVGID_1_"  style="overflow:visible;"/>
	</clipPath>
</g>
<path class="st0" d="M6.6,94.1c0.1,1.1-0.3,2.3-1,3.2c-0.4,0.3-0.9,0.5-1.4,0.5c-0.4,0-0.8-0.3-1.1-0.6c-0.2-0.4-0.3-0.9-0.1-1.3
	c0.2-0.5,0.5-0.9,1-1.1c1-0.5,1.7-1.4,2.1-2.5c0-0.1,0-0.2,0.2-0.2c0.1,0,0.2,0.1,0.2,0.2c0.1,0.3,0.1,0.7,0.2,1L8,93.3h5.4v-3.5
	c0-0.1,0-0.3,0-0.4c0-0.1,0.1-0.1,0.2-0.1c1,0,2,0.1,2.9,0.4c0.4,0.1,0.5,0.3,0.5,0.5s-0.2,0.4-0.5,0.5s-0.3,0.2-0.3,0.3v2.3h5.9
	c0.2,0,0.3-0.1,0.4-0.2c0.3-0.3,0.6-0.5,1-0.7c0.1-0.1,0.3-0.1,0.4,0c0.9,0.5,1.8,1,2.6,1.7c0.2,0.2,0.2,0.4,0.2,0.6
	c-0.2,0.2-0.4,0.2-0.6,0.2c-0.1,0-0.3,0-0.4,0c-1.5,1-2.8,1.7-3.9,2.4c-0.2,0-0.4,0-0.4,0c-0.1-0.1-0.1-0.3,0-0.4
	c0.5-0.9,1-1.8,1.3-2.8H8.1L6.6,94.1z M9.8,99.9H5.7l-1.5,0.2c-0.2,0.1-0.3,0-0.3-0.1c-0.1-0.3-0.2-0.6-0.3-0.9
	c0-0.1,0.1-0.2,0.3-0.1l1.8,0.2h4.2c0.2-1.1,0.3-2.2,0.4-3.3c0-0.3,0-0.6,0.1-0.8s0.1-0.2,0.2-0.3c1,0.1,2,0.2,3,0.5
	c0.4,0.1,0.6,0.3,0.6,0.5s-0.1,0.3-0.5,0.5c-0.2,0-0.3,0.2-0.3,0.4c-0.1,0.8-0.3,1.6-0.5,2.6h8.3c0.2,0,0.4-0.1,0.5-0.3
	c0.4-0.6,0.9-1.3,1.5-1.9c0.2-0.1,0.4-0.1,0.5,0c1,0.6,1.9,1.4,2.6,2.3c0.1,0.1,0.1,0.3,0.1,0.4c-0.1,0.1-0.3,0.2-0.4,0.2H12.6
	c-0.6,2.3-1.4,4.6-2.4,6.8c-1.5,2.8-3.9,5-6.8,6.2c-0.2,0-0.2,0-0.3-0.1s0-0.2,0.3-0.4C7.1,109.3,9.3,104.8,9.8,99.9z M21.4,109.8
	c-3.5,1.3-7,2.3-10.7,3.1c-0.5,0.1-0.8,0.3-0.8,0.5c-0.1,0.3-0.3,0.5-0.5,0.5s-0.4-0.2-0.5-0.7c-0.2-0.8-0.4-1.7-0.6-2.7
	c0-0.2,0.1-0.3,0.3-0.3c1.3,0,2.6,0,3.9,0c1.3-2.7,2-5.7,2.2-8.7c0-0.1,0.1-0.2,0.2-0.2c0,0,0,0,0,0c1,0.1,2,0.4,2.9,0.7
	c0.4,0.2,0.5,0.3,0.5,0.5s-0.2,0.3-0.5,0.3s-0.3,0.1-0.3,0.2c-0.9,2.6-2.3,4.9-4.1,7c2.5-0.2,5.1-0.5,7.5-1
	c-0.5-0.9-1.1-1.6-1.9-2.2c-0.1-0.1-0.2-0.2-0.1-0.3c0-0.1,0.1-0.2,0.3-0.2c3,0.8,4.9,2.4,5.8,4.6c0.2,0.5,0.3,1.2,0,1.7
	c-0.1,0.5-0.5,0.9-1,1c-0.5,0.1-1,0-1.3-0.3c-0.4-0.4-0.6-0.9-0.6-1.4C22,111.4,21.8,110.6,21.4,109.8z"/>
<path class="st0" d="M47.5,110c-1-1.5-1.7-3.1-2-4.9h-5v1.5c1-0.3,1.9-0.6,2.9-0.9c0.2-0.1,0.3,0,0.3,0s0,0.2-0.1,0.3
	c-1,0.6-2.1,1.2-3.1,1.7v3.2c0,0.6-0.1,1.3-0.4,1.8c-0.5,0.9-1.6,1.3-3.1,1.3c-0.2,0-0.3-0.1-0.3-0.2c0.1-1.1-0.6-2-1.6-2.4
	c-0.1,0-0.2-0.2-0.2-0.3c0-0.1,0.1-0.2,0.2-0.2c0,0,0,0,0,0c0.8,0,1.4,0,1.9,0c0.5,0,0.7-0.2,0.7-0.6v-1.6l-3.2,1.1
	c-0.5,0.2-0.7,0.3-0.7,0.5s-0.2,0.4-0.4,0.5s-0.3-0.2-0.5-0.5c-0.3-0.8-0.5-1.5-0.7-2.3c0-0.2,0-0.3,0.3-0.3
	c1.8-0.1,3.5-0.3,5.3-0.5v-2.1h-3.9l-1.5,0.2c-0.2,0.1-0.3,0-0.3-0.1c-0.1-0.3-0.2-0.6-0.3-0.9c0-0.1,0.1-0.2,0.3-0.1l1.8,0.2h3.9
	v-1.6c-1.5,0.3-3.1,0.4-4.7,0.5c-0.2,0-0.2-0.1-0.3-0.2s0.1-0.2,0.2-0.2c2.6-0.7,5-1.7,7.3-3.1H34l-1.5,0.2c-0.2,0.1-0.3,0-0.3-0.1
	c-0.1-0.3-0.2-0.6-0.3-0.9c0-0.1,0.1-0.2,0.3-0.1l1.8,0.2h8.2v-2.1h-5.7l-1.5,0.2c-0.2,0.1-0.3,0-0.3-0.1c-0.1-0.3-0.2-0.6-0.3-0.9
	c0-0.1,0.1-0.2,0.3-0.1l1.8,0.2h5.7v-2.1H35l-1.5,0.2c-0.2,0.1-0.3,0-0.3-0.1C33.1,94.3,33,94,33,93.7c0-0.1,0.1-0.2,0.3-0.1
	l1.8,0.2h3.9c-0.4-0.4-0.6-0.8-0.7-1.4c0-1-0.5-1.9-1.3-2.6c-0.1-0.1-0.1-0.2-0.1-0.3c0-0.1,0.1-0.2,0.2-0.1c0,0,0,0,0,0l0.8,0.1
	c1.2,0.2,2.2,0.8,2.8,1.8c0.2,0.5,0.2,1,0.1,1.5c-0.1,0.3-0.3,0.6-0.6,0.8h4.9c0.6-1.4,1-2.8,1.3-4.2c0-0.2,0.1-0.2,0.2-0.2
	c0.8,0.2,1.7,0.4,2.4,0.6c0.5,0.1,0.7,0.3,0.7,0.6c0,0.3-0.2,0.4-0.5,0.4c-0.2,0-0.4,0.2-0.5,0.3c-0.7,1-1.6,1.8-2.6,2.5h3.3
	c0.2,0,0.4-0.1,0.5-0.2c0.4-0.6,0.9-1.2,1.4-1.8c0.1-0.1,0.4-0.1,0.5,0c0.9,0.6,1.8,1.3,2.4,2.2c0.1,0.1,0.2,0.3,0.1,0.4
	c-0.1,0.1-0.3,0.2-0.4,0.2H45v2.1h3.2c0.2,0,0.3-0.1,0.4-0.2c0.4-0.5,0.8-1,1.3-1.6c0.1-0.1,0.3-0.1,0.4,0c0,0,0,0,0,0
	c0.8,0.5,1.5,1.2,2.1,1.9c0.1,0.1,0.2,0.3,0.1,0.4c-0.1,0.1-0.3,0.2-0.4,0.2H45v2.1h5.8c0.2,0,0.3-0.1,0.4-0.2
	c0.4-0.6,0.9-1.1,1.4-1.7c0.1-0.1,0.3-0.1,0.5,0c0.9,0.6,1.7,1.3,2.3,2.1c0.1,0.1,0.2,0.3,0.1,0.4c-0.1,0.1-0.3,0.2-0.4,0.2H41.3
	c0.7,0.3,1.3,0.7,1.9,1.2c0.3,0.2,0.3,0.4,0.3,0.6c-0.1,0.1-0.3,0.2-0.5,0.2c-0.9,0.1-1.7,0.3-2.5,0.5v2.1h4.9
	c-0.2-0.9-0.3-1.9-0.4-2.8c0-0.4-0.1-0.7-0.1-1.1c0-0.2,0.1-0.3,0.2-0.3c0.9,0.1,1.8,0.2,2.7,0.4c0.1,0,0.3,0.2,0.3,0.3
	c0,0.2-0.1,0.4-0.4,0.6c-0.2,0.2-0.3,0.4-0.2,0.7c0,0.7,0.1,1.4,0.3,2.1h3.2c0.2,0,0.3-0.1,0.4-0.2c0.4-0.5,0.8-1,1.3-1.6
	c0.1-0.1,0.3-0.1,0.4,0c0,0,0,0,0,0c0.8,0.5,1.5,1.2,2.1,1.9c0.1,0.1,0.2,0.3,0.1,0.4s-0.2,0.2-0.4,0.2h-6.9
	c0.3,1.1,0.7,2.1,1.2,3.1c0.6-0.8,1-1.6,1.4-2.4c0-0.1,0.1-0.1,0.2-0.1c0.8,0.3,1.6,0.8,2.3,1.2c0.3,0.2,0.4,0.4,0.3,0.6
	c-0.1,0.2-0.3,0.3-0.5,0.2c-0.2,0-0.3,0.1-0.4,0.2c-0.6,0.6-1.2,1.2-1.8,1.8c1.2,0.9,2.1,1.4,2.6,1.3c0.4-0.1,0.8-1.1,1.4-3
	c0.1-0.2,0.2-0.3,0.4-0.3s0.2,0.2,0.2,0.5c-0.1,2.1,0,3.3,0.3,3.6c0.5,0.4,0.7,1,0.5,1.6c-0.3,0.5-0.8,0.8-1.3,0.7
	c-1.2,0-2.4-0.4-3.4-1c-1-0.5-1.9-1.2-2.7-2c-2.1,1.3-4.3,2.1-6.7,2.5c-0.1,0-0.2,0-0.2-0.1c0-0.1,0-0.2,0.1-0.2c0,0,0,0,0.1,0
	C43.8,112.7,45.8,111.5,47.5,110z M48.5,100.7c-0.1,0-0.1-0.1-0.1-0.3c0-0.1,0.1-0.2,0.2-0.1c0.2,0,0.4,0,0.6,0
	c0.9,0,1.8,0.3,2.4,0.9c0.2,0.4,0.3,1,0.2,1.5c0,0.5-0.3,0.8-0.8,1c-0.4,0.2-0.8,0.1-1.2-0.2c-0.3-0.3-0.6-0.7-0.6-1.1
	C49.2,101.8,48.9,101.2,48.5,100.7L48.5,100.7z"/>
<path class="st0" d="M71,111.1V93.6h-7.2l-1.5,0.2c-0.2,0.1-0.3,0-0.3-0.1c-0.1-0.3-0.2-0.6-0.3-0.9c0-0.1,0.1-0.2,0.3-0.1l1.8,0.2
	h14.3c0.2,0,0.4-0.1,0.5-0.3c0.4-0.6,0.9-1.3,1.5-1.9c0.1-0.2,0.4-0.2,0.5-0.1c1,0.6,1.9,1.4,2.6,2.3c0.1,0.1,0.2,0.3,0.1,0.4
	c-0.1,0.1-0.3,0.2-0.4,0.2h-9v17.5h5.5c0.2,0,0.4-0.1,0.5-0.3c0.4-0.6,0.9-1.3,1.5-1.9c0.2-0.1,0.4-0.1,0.5,0c1,0.6,1.9,1.4,2.6,2.3
	c0.1,0.1,0.2,0.3,0.1,0.4s-0.2,0.2-0.4,0.2H62.6l-1.5,0.1c-0.2,0.1-0.3,0-0.3-0.1c-0.1-0.3-0.2-0.6-0.3-0.9c0-0.1,0.1-0.2,0.3-0.1
	l1.8,0.2L71,111.1z"/>
<path class="st0" d="M95.7,101v12.2c0,0.4-0.3,0.8-0.6,0.9c-0.5,0.2-1.2,0.2-1.7-0.1c-0.3-0.2-0.5-0.5-0.4-0.9v-7.8
	c-0.5,1.9-1.6,3.6-3.2,4.8c-0.2,0.1-0.3,0.1-0.5,0c-0.1-0.1-0.1-0.3,0-0.4c1.8-3.5,3-7.3,3.6-11.2h-1.8l-1.7,0.2
	c-0.1,0.1-0.2,0-0.2-0.1c-0.1-0.3-0.1-0.6-0.2-0.9c0-0.1,0.1-0.1,0.2-0.1l1.8,0.2H93v-4.4c-1.4,0.2-2.5,0.3-3.2,0.3
	c-0.3,0-0.4-0.1-0.4-0.2c0-0.1,0.1-0.2,0.2-0.3c2.4-0.7,4.6-1.8,6.6-3.3c0.2-0.2,0.3-0.2,0.5-0.2c0.9,0.4,1.7,0.9,2.4,1.5
	c0.4,0.3,0.5,0.6,0.4,0.8s-0.4,0.3-0.8,0.2l-2.9,0.6v4.9H96c0.2,0,0.3-0.1,0.4-0.2c0.3-0.5,0.6-1,1-1.4c0.1-0.2,0.3-0.3,0.5-0.1
	c0.6,0.5,1.1,1.1,1.5,1.7c0.1,0.1,0.2,0.3,0.1,0.5c0,0.1-0.2,0.2-0.4,0.2h-3.4v1.6H96c1.4,0.4,2.6,1.4,3.2,2.7c0.2,0.5,0.2,1,0,1.5
	c-0.1,0.4-0.5,0.8-1,0.8c-0.4,0.1-0.9,0-1.2-0.4c-0.3-0.3-0.5-0.8-0.5-1.3C96.5,102.6,96.2,101.8,95.7,101z M104.2,112.6v-4.9H101
	l-1.5,0.2c-0.2,0.1-0.3,0-0.3-0.1c-0.1-0.3-0.2-0.5-0.2-0.8c0-0.1,0.1-0.2,0.3-0.1l1.7,0.1h3.1v-3.6c-1.4,0.2-2.8,0.3-4.2,0.3
	c-0.2,0-0.3-0.1-0.3-0.2s0.1-0.2,0.2-0.3c3-0.7,5.9-1.8,8.5-3.4c0.1-0.1,0.2-0.1,0.4-0.1c0.9,0.4,1.7,1,2.5,1.6
	c0.3,0.2,0.4,0.4,0.3,0.7s-0.3,0.2-0.6,0.2s-1.6,0.3-4.1,0.8v4h0.6c0.2,0,0.3-0.1,0.4-0.2c0.4-0.6,0.9-1.1,1.4-1.7
	c0.1-0.1,0.3-0.1,0.5,0c0,0,0,0,0,0c0.9,0.6,1.7,1.3,2.3,2.1c0.1,0.1,0.2,0.3,0.1,0.4s-0.2,0.2-0.4,0.2h-4.8v4.9h1.7
	c0.2,0,0.3-0.1,0.4-0.2c0.4-0.6,0.9-1.1,1.3-1.7c0.1-0.1,0.3-0.1,0.5,0c0,0,0,0,0,0c0.9,0.6,1.7,1.3,2.3,2.1
	c0.1,0.1,0.2,0.3,0.1,0.4c-0.1,0.1-0.3,0.2-0.4,0.2H99.4l-1.5,0.2c-0.2,0.1-0.3,0-0.3-0.1c-0.1-0.3-0.2-0.6-0.3-0.9
	c0-0.1,0.1-0.2,0.3-0.1l1.8,0.2L104.2,112.6z M102.6,98v0.5c0,0.4-0.1,0.7-0.4,0.9c-0.4,0.2-0.8,0.3-1.3,0.3c-0.3,0-0.6-0.1-0.8-0.2
	c-0.2-0.2-0.2-0.4-0.2-0.7v-8.7c0-0.2,0-0.3,0.1-0.2c0.9,0.2,1.9,0.5,2.7,1h5.7c0,0,0.4-0.3,0.9-0.9c0.1-0.1,0.2-0.1,0.3,0
	c0.9,0.3,1.7,0.7,2.4,1.2c0.5,0.3,0.4,0.7-0.2,1c-0.2,0.1-0.3,0.3-0.3,0.5v5.8c0,0.3-0.2,0.6-0.4,0.7c-0.4,0.2-0.8,0.3-1.3,0.3
	c-0.3,0-0.6-0.1-0.8-0.3c-0.1-0.2-0.2-0.5-0.2-0.8V98H102.6z M102.6,97.3h6.2v-5.5c-0.1-0.2-0.2-0.2-0.3-0.2h-5.8h-0.1L102.6,97.3z"
	/>
<path class="st1" d="M55.8,58.8C63.3,64,71,68.6,82.2,71.1c3.7,0.8,7.8,1.4,10-0.5c0.8-0.7,1.3-1.6,1.7-2.5c1.1-3.1,0.2-6.3-1.2-9.4
	c-1-2.2-2.1-4.3-3.5-6.3v-3.6c6.1,6.4,12,13,12.4,21.8c0.2,3.7-0.6,7.9-3.7,9.8c-2,1.2-5,1.4-7.9,1.3c-6-0.4-11.1-2.8-15.9-5.4
	c-17.5-9.2-35.8-23.2-48.1-36.7c-4.1-4.5-8.9-10.1-12.6-14.8L34,42.3C41.1,47.8,48,53.3,55.8,58.8L55.8,58.8z"/>
<path class="st2" d="M18,36.2C31.8,50.3,47.7,66,64.9,75.5c3.8,2.1,7.8,4.1,11.9,6H52.2c-2.8-3-5.7-5.9-8.4-9
	C34.9,62.7,27.5,52,20.2,39.8L18,36.2z"/>
<path class="st3" d="M34,39.5L34,39.5v-5.2l19-9.4v29.3l11.3,7.7l13-6.6v12.5c1.6,0.5,3.3,0.9,5,1.3c1.9,0.5,3.8,0.7,5.8,0.8V22.3
	l-10.8,7.3v21.7l-13,6.6V28.6L53,21.1l-19,9.4V4.3l21.8,10.5v6.4l3.3,2.2V12L34,0L21,8.7v19.4L34,39.5z"/>
<path class="st3" d="M77.2,79.4v2.2h6.1C81.2,81.1,79.1,80.3,77.2,79.4z"/>
<path class="st3" d="M21,44.7v36.8h13V64.2C29.4,58.1,25.2,51.6,21,44.7z"/>
<g class="st4">
	<path class="st5" d="M14.6,130.3h-3v1.4c0,0.8-0.4,1.2-1.3,1.2c-0.3,0-0.8,0-1.3,0l-0.3-0.7c0.3,0,0.7,0,1.1,0c0.5,0,0.9,0,1-0.1
		c0.1-0.1,0.1-0.1,0.1-0.3v-1.5H2.4v-0.7h8.5v-0.7h0.7v0.7h3V130.3z M14.4,122.1H8.9v1h4.4v3.8h-0.7c0.7,0.6,1.2,1.2,1.7,1.9
		l-0.6,0.4c-0.3-0.4-0.5-0.7-0.7-0.8c-3.8,0.3-7.2,0.4-10.2,0.5l-0.2-0.7c1.7,0,3.5,0,5.5-0.1v-1.1H3.7V123h4.5v-1H2.6v-0.6h5.6
		v-0.9h0.7v0.9h5.5V122.1z M8.2,124.6v-0.9H4.4v0.9H8.2z M8.2,126.2v-1H4.4v1H8.2z M7.3,131.9l-0.5,0.6c-0.7-0.6-1.4-1-2.1-1.4
		l0.5-0.5C5.8,130.8,6.5,131.3,7.3,131.9z M12.6,124.6v-0.9H8.9v0.9H12.6z M12.6,126.2v-1H8.9v1H12.6z M12.5,127.7
		c-0.3-0.3-0.4-0.4-0.5-0.5l0.5-0.4H8.9v1.1C10.4,127.9,11.6,127.8,12.5,127.7z"/>
	<path class="st5" d="M29.4,129.3h-5.7v3.6h-0.7v-3.6h-5.8v-0.7h5.8v-1.2h-5.2v-0.7h5.2v-1.1h-5.5V125h3.7c-0.2-0.4-0.5-0.8-0.8-1.1
		l0.5-0.3h-3.7v-0.7h4.6v-2.3h0.7v2.3h1.6v-2.3h0.7v2.3h4.6v0.7h-3.7l0.5,0.3c-0.2,0.4-0.4,0.7-0.7,1.1h3.6v0.7h-5.4v1.1h5v0.7h-5
		v1.2h5.7V129.3z M21.7,130.3c-1,0.8-2.4,1.5-4,2.1l-0.5-0.6c1.8-0.6,3.1-1.3,4-2L21.7,130.3z M20.4,122.2l-0.6,0.4
		c-0.3-0.5-0.8-0.9-1.4-1.4l0.6-0.4C19.5,121.2,20,121.7,20.4,122.2z M25.5,123.5h-4.5c0.4,0.6,0.7,1.1,0.9,1.4h2.6
		C25.1,124.4,25.4,123.9,25.5,123.5z M29.4,132l-0.4,0.6c-1.4-0.9-2.8-1.7-4.1-2.2l0.4-0.6C26.9,130.5,28.2,131.3,29.4,132z
		 M28.3,121c-0.4,0.5-0.9,1-1.4,1.5l-0.6-0.4c0.6-0.5,1.1-1,1.4-1.4L28.3,121z"/>
	<path class="st5" d="M36.8,127c0.2,0,0.4,0.1,0.6,0.2s0.2,0.3,0.2,0.6c0,0.2-0.1,0.4-0.2,0.6c-0.2,0.2-0.3,0.2-0.6,0.2
		s-0.4-0.1-0.6-0.2c-0.2-0.2-0.2-0.3-0.2-0.6c0-0.2,0.1-0.4,0.2-0.6C36.4,127.1,36.6,127,36.8,127z"/>
	<path class="st5" d="M48.5,122.6h-4.2v-0.7h1.8c-0.1-0.5-0.3-0.9-0.6-1.3l0.7-0.3c0.3,0.5,0.5,1,0.7,1.6h1.6V122.6z M48.2,124.7
		h-3.5V124h3.5V124.7z M48.2,126.7h-3.5V126h3.5V126.7z M47.9,132.4h-0.7v-0.8h-1.8v1.1h-0.7V128h3.2V132.4z M47.2,131v-2.2h-1.8
		v2.2H47.2z M56.5,130c-0.1,0.9-0.2,1.5-0.4,2c-0.2,0.5-0.5,0.7-0.9,0.7c-0.7,0-1.2-0.8-1.5-2.4c-0.6,0.7-1.2,1.4-2.1,2.1l-0.5-0.6
		c1-0.8,1.8-1.7,2.4-2.5c-0.3-1.9-0.4-3.8-0.5-6h-3.1v1.8h2.3c0,1.3,0,2.4,0,3.2c0,0.8-0.1,1.3-0.1,1.5c-0.1,0.2-0.2,0.3-0.4,0.4
		c-0.2,0.1-0.5,0.2-0.9,0.2c-0.2,0-0.3,0-0.5,0l-0.2-0.7c0.1,0,0.4,0,0.9,0c0.2,0,0.4-0.2,0.4-0.6c0-0.4,0-1.5,0-3.3h-1.6
		c0,3-0.3,5.2-0.8,6.8l-0.7-0.3c0.6-1.7,0.8-3.8,0.8-6.3v-3.3H53c0-0.4,0-1.1,0-2.2h0.7l0,2.2h2.8v0.7h-2.8c0,1.7,0.2,3.3,0.4,4.9
		c0.6-1.1,1-2.3,1.4-3.6l0.7,0.4c-0.5,1.6-1.1,3.1-1.9,4.4c0.1,0.7,0.2,1.2,0.4,1.6s0.3,0.6,0.3,0.7c0,0.1,0.1,0.1,0.2,0.1
		c0.1,0,0.1,0,0.2-0.1c0-0.1,0.1-0.3,0.2-0.8c0.1-0.5,0.2-0.9,0.2-1.4L56.5,130z M56.1,122.1l-0.7,0.4c-0.2-0.4-0.5-0.9-0.9-1.4
		l0.5-0.4C55.5,121.2,55.9,121.6,56.1,122.1z"/>
	<path class="st5" d="M62.6,120.8c-0.1,0.4-0.3,0.9-0.6,1.6l-0.4,0.9v9.6h-0.7v-8.2c-0.6,1-1.1,1.7-1.6,2.2l-0.4-0.7
		c1.3-1.6,2.3-3.4,3-5.6L62.6,120.8z M71.2,122.9h-8.7v-0.7h3.9c-0.1-0.3-0.3-0.8-0.6-1.4l0.7-0.3c0.3,0.5,0.5,1.1,0.7,1.6h4V122.9z
		 M70.6,124.9h-7.5v-0.7h7.5V124.9z M70.6,127h-7.5v-0.7h7.5V127z M70.4,132.9h-0.7v-0.7H64v0.7h-0.7v-4.4h7.1V132.9z M69.7,131.5
		v-2.3H64v2.3H69.7z"/>
	<path class="st5" d="M78.7,127c0.2,0,0.4,0.1,0.6,0.2s0.2,0.3,0.2,0.6c0,0.2-0.1,0.4-0.2,0.6c-0.2,0.2-0.3,0.2-0.6,0.2
		c-0.2,0-0.4-0.1-0.6-0.2c-0.2-0.2-0.2-0.3-0.2-0.6c0-0.2,0.1-0.4,0.2-0.6S78.5,127,78.7,127z"/>
	<path class="st5" d="M91.3,126.2c0,0.2-0.2,0.7-0.6,1.5c-0.4,0.8-1,1.5-1.7,2.1c-0.7,0.6-1.5,1.2-2.4,1.7l-0.5-0.7
		c2.2-1.2,3.7-2.7,4.3-4.5h-3.8v-0.7h4.7V126.2z M98.6,130.9l-0.5,0.6c-2.3-1.5-4-3.3-5-5.4v5.6c0,0.3-0.1,0.5-0.2,0.6
		c-0.1,0.2-0.3,0.3-0.5,0.3c-0.2,0.1-0.7,0.1-1.5,0.1c-0.3,0-0.6,0-0.9,0l-0.3-0.8c0.5,0,1,0,1.4,0c0.5,0,0.8,0,1,0
		c0.2,0,0.2-0.2,0.2-0.4v-7.6h-4v-0.7H93v0.9c0.3,1,0.7,1.9,1.2,2.5c1.6-1.2,2.8-2.2,3.5-3.3l0.6,0.5c-0.8,1.1-2,2.2-3.7,3.4
		C95.5,128.6,96.9,129.9,98.6,130.9z M95,122l-0.3,0.7c-1.1-0.5-2.7-1.1-4.9-1.6l0.4-0.7C92,120.8,93.6,121.3,95,122z"/>
	<path class="st5" d="M102.3,129.5c-0.1,1.1-0.4,2.2-0.8,3.3l-0.7-0.2c0.3-0.9,0.6-2,0.8-3.2L102.3,129.5z M105.5,128.4l-0.7,0.2
		c0-0.2-0.1-0.3-0.1-0.6c-1.1,0.3-2.3,0.6-3.5,0.9l-0.2-0.7c0.9-1,1.7-2.1,2.4-3.3c-0.8,0.1-1.5,0.2-2.2,0.3l-0.2-0.6
		c0.8-1.1,1.5-2.5,2.1-4.2l0.6,0.3c-0.7,1.6-1.3,2.9-1.9,3.8c0.6-0.1,1.2-0.1,1.8-0.3c0.3-0.6,0.7-1.2,0.9-1.8l0.6,0.3
		c-0.9,2-2.1,3.8-3.4,5.4c0.8-0.2,1.7-0.4,2.5-0.7c-0.1-0.3-0.2-0.6-0.4-1l0.6-0.2C105.1,126.8,105.3,127.5,105.5,128.4z
		 M103.8,132.3l-0.7,0.2c0-0.9-0.1-1.9-0.3-2.9l0.6-0.1C103.7,130.5,103.8,131.4,103.8,132.3z M105.5,131.1l-0.6,0.2
		c-0.1-0.6-0.3-1.3-0.6-2.1l0.6-0.2C105.1,129.7,105.4,130.4,105.5,131.1z M112.2,130.8h-4.1l0.4,0.5c-1,0.7-2.1,1.2-3.1,1.5
		l-0.5-0.5c1-0.4,2-0.9,3-1.5h-1.8v-4.4h6V130.8z M113.2,121.9h-3.6v0.7h3.1v0.6h-6.8v-0.6h3v-0.7h-3.6v-0.6h3.6v-0.8h0.7v0.8h3.6
		V121.9z M112.8,125.8h-7.3v-1.9h7.3V125.8z M107.7,125.2v-0.8h-1.5v0.8H107.7z M111.5,127.7V127h-4.6v0.7H111.5z M111.5,129v-0.7
		h-4.6v0.7H111.5z M111.5,130.3v-0.7h-4.6v0.7H111.5z M109.9,125.2v-0.8h-1.6v0.8H109.9z M113.2,132.3l-0.4,0.6
		c-0.8-0.4-1.8-0.8-2.9-1.2l0.4-0.5C111.4,131.4,112.3,131.8,113.2,132.3z M112.1,125.2v-0.8h-1.5v0.8H112.1z"/>
</g>
</svg>
