<svg id="圖層_1" data-name="圖層 1" xmlns="http://www.w3.org/2000/svg" xmlns:xlink="http://www.w3.org/1999/xlink" viewBox="0 0 127.44 117.85"><defs><style>.cls-1{fill:none;}.cls-2{clip-path:url(#clip-path);}.cls-3{clip-path:url(#clip-path-2);}.cls-4{fill:#51a0bf;}.cls-4,.cls-5,.cls-6{fill-rule:evenodd;}.cls-5{fill:#008585;}.cls-6{fill:#004663;}</style><clipPath id="clip-path"><rect class="cls-1" x="1137.71" y="-1042.27" width="320" height="560"/></clipPath><clipPath id="clip-path-2"><rect class="cls-1" x="330.75" y="-1276.15" width="1920" height="795.67"/></clipPath></defs><title>工作區域 15</title><g class="cls-2"><g class="cls-3"><image width="2223" height="1572" transform="translate(96.75 -1291.96) scale(0.97)" xlink:href="I:%5C01-Case%20(%E5%B0%88%E6%A1%88)%5C%E7%B6%B2%E7%AB%99-2020-05-06-%E8%88%88%E6%98%87%E8%B3%87%E8%A8%8A-%E7%87%9F%E9%80%A0%E5%85%AC%E5%8F%B8-%E4%BC%81%E6%A5%AD%E7%B6%B2%E7%AB%99%5C05-%E7%B4%A0%E6%9D%90%5CNeo%5Cqj6622038569.jpg"/></g></g><path class="cls-4" d="M61.08,85c10.83,7.54,21.93,14.2,38.18,17.7,5.29,1.2,11.23,2,14.53-.77a9.16,9.16,0,0,0,2.38-3.6c1.59-4.48.27-9.18-1.71-13.55a65.06,65.06,0,0,0-5-9.18V70.36c8.85,9.29,17.3,18.8,18,31.47.27,5.36-.79,11.37-5.28,14.1-2.91,1.75-7.27,2.08-11.36,1.86-8.72-.55-16-4-23-7.87C62.54,96.59,36,76.41,18.26,56.85,12.38,50.35,5.42,42.3,0,35.42L29.51,61.18C39.78,69.15,49.8,77.07,61.08,85Z"/><path class="cls-5" d="M6.5,52.39c19.84,20.37,42.9,43,67.73,56.76,5.49,3,11.28,5.92,17.22,8.7H55.79c-4.11-4.29-8.22-8.57-12.18-13C30.8,90.62,20.14,75.12,9.62,57.48Z"/><path class="cls-6" d="M29.51,57.08h0V49.52L57,35.88v42.3L73.23,89.24,92,79.71v18c2.31.7,4.72,1.33,7.27,1.88a36.3,36.3,0,0,0,8.33,1.09V32.27L92,42.86V74.27L73.22,83.76V41.4L57,30.46,29.52,44V6.25L61.07,21.36v9.25l4.77,3.21V17.4L29.52,0,10.77,12.6v28Z"/><path class="cls-6" d="M92,114.74v3.11h8.81A38.74,38.74,0,0,1,92,114.74Z"/><path class="cls-6" d="M10.77,64.59v53.23H29.52v-25C22.94,84,16.82,74.64,10.77,64.59Z"/></svg>