<svg id="圖層_1" data-name="圖層 1" xmlns="http://www.w3.org/2000/svg" xmlns:xlink="http://www.w3.org/1999/xlink" viewBox="0 0 115.89 132.86"><defs><style>.cls-1{fill:none;}.cls-2{clip-path:url(#clip-path);}.cls-3{fill:#251e1c;}.cls-4{fill:#6c98b3;}.cls-4,.cls-5,.cls-6{fill-rule:evenodd;}.cls-5{fill:#49807f;}.cls-6{fill:#284660;}.cls-7{font-size:14.06px;fill:#707071;font-family:MicrosoftJhengHeiRegular, Microsoft JhengHei;letter-spacing:0.05em;}</style><clipPath id="clip-path"><rect class="cls-1" x="-901.49" y="705.92" width="1920" height="481.26" transform="translate(117.03 1893.11) rotate(180)"/></clipPath></defs><title>工作區域 7</title><g class="cls-2"><image width="7360" height="4912" transform="translate(-901.49 36.08) scale(0.26)" xlink:href="I:%5C01-Case%20(%E5%B0%88%E6%A1%88)%5C%E7%B6%B2%E7%AB%99-2020-05-06-%E8%88%88%E6%98%87%E8%B3%87%E8%A8%8A-%E7%87%9F%E9%80%A0%E5%85%AC%E5%8F%B8-%E4%BC%81%E6%A5%AD%E7%B6%B2%E7%AB%99%5C05-%E7%B4%A0%E6%9D%90%5C%E4%BD%95%E5%AD%B8%E6%89%BF%5C%E7%A2%BA%E5%AE%9A%E7%B4%A0%E6%9D%90%5C2658311.jpg"/></g><path class="cls-3" d="M6.59,94.11a4.8,4.8,0,0,1-1,3.15,2.23,2.23,0,0,1-1.41.46,1.5,1.5,0,0,1-1.1-.64A1.53,1.53,0,0,1,3,95.77,1.87,1.87,0,0,1,4,94.7a4.28,4.28,0,0,0,2.07-2.48q0-.18.15-.18c.1,0,.16.08.18.2a5.19,5.19,0,0,1,.16,1l1.48.08h5.4V89.84a3.89,3.89,0,0,0,0-.44c0-.07.06-.1.18-.1a13.87,13.87,0,0,1,2.94.38c.36.14.54.29.54.46s-.16.41-.49.52-.3.18-.28.35v2.31h5.86a.71.71,0,0,0,.41-.21,5,5,0,0,1,1-.74.57.57,0,0,1,.44,0,12.44,12.44,0,0,1,2.6,1.71.6.6,0,0,1,.16.59.8.8,0,0,1-.64.2.84.84,0,0,0-.39,0c-1.45,1-2.76,1.74-3.93,2.36-.24,0-.39,0-.44,0a.42.42,0,0,1,0-.41A21.52,21.52,0,0,0,22.73,94H8.05Zm3.17,5.83H5.7l-1.51.23c-.17.07-.27,0-.29-.08a7.2,7.2,0,0,1-.25-.92c0-.11.06-.15.28-.1l1.77.18H9.89q.25-1.64.36-3.27c0-.31,0-.59.05-.85s.06-.24.18-.25a18.31,18.31,0,0,1,3,.48c.41.1.61.26.61.46s-.15.34-.46.46a.4.4,0,0,0-.31.39c-.15.78-.33,1.64-.53,2.58h8.31a.58.58,0,0,0,.51-.25c.44-.64.93-1.27,1.46-1.9a.4.4,0,0,1,.54,0,9.57,9.57,0,0,1,2.63,2.35c.12.14.15.26.1.36a.45.45,0,0,1-.43.18H12.6a40.73,40.73,0,0,1-2.38,6.78A14,14,0,0,1,3.44,113c-.15,0-.23,0-.25-.05s.05-.24.25-.36A19.16,19.16,0,0,0,9.76,99.94Zm11.62,9.9a70.65,70.65,0,0,1-10.67,3.1q-.75.18-.84.48c-.12.31-.3.46-.52.46s-.36-.2-.48-.66c-.21-.79-.39-1.67-.57-2.66,0-.19.09-.28.31-.26,1.33,0,2.64,0,3.92,0a22.33,22.33,0,0,0,2.17-8.67.16.16,0,0,1,.2-.16,11.59,11.59,0,0,1,2.89.74c.35.16.52.32.52.49s-.19.28-.46.33-.27.11-.29.23a23.29,23.29,0,0,1-4.11,7A69.38,69.38,0,0,0,21,109.23a6,6,0,0,0-1.94-2.15.24.24,0,0,1-.1-.31c0-.12.12-.17.28-.15,3,.85,4.89,2.39,5.78,4.6a2.26,2.26,0,0,1,.05,1.72,1.3,1.3,0,0,1-1,1,1.43,1.43,0,0,1-1.33-.3,2.16,2.16,0,0,1-.59-1.38A8.53,8.53,0,0,0,21.38,109.84Z"/><path class="cls-3" d="M47.45,110a13.1,13.1,0,0,1-2-4.86h-5v1.51q1.45-.39,2.94-.87c.17-.07.28,0,.33,0s0,.21-.13.33a26.09,26.09,0,0,1-3.14,1.67V111a3.57,3.57,0,0,1-.39,1.84c-.52.87-1.56,1.3-3.09,1.3-.17,0-.26-.11-.26-.23a2.36,2.36,0,0,0-1.56-2.38.27.27,0,0,1-.18-.28.19.19,0,0,1,.23-.15q1.13,0,1.92,0c.46,0,.69-.21.69-.64v-1.61l-3.19,1.1c-.46.16-.7.32-.72.49s-.23.44-.44.46-.34-.16-.46-.54a17.22,17.22,0,0,1-.74-2.32c0-.18.05-.26.26-.26a48.53,48.53,0,0,0,5.29-.54v-2.07H33.9l-1.51.23c-.17.07-.27,0-.29-.08a7.68,7.68,0,0,1-.25-.92c0-.12.06-.15.28-.1l1.77.18h3.88v-1.56a35.34,35.34,0,0,1-4.68.51c-.15,0-.24-.06-.25-.18s.06-.21.23-.23a28.9,28.9,0,0,0,7.31-3.07H34l-1.51.23c-.17.07-.27,0-.28-.08a5.85,5.85,0,0,1-.26-.92c0-.11.06-.15.28-.1l1.77.18h8.18V97.18H36.45l-1.51.23c-.17.07-.26,0-.28-.08a6.18,6.18,0,0,1-.25-.92c0-.12.06-.15.28-.1l1.76.18h5.73V94.42H35l-1.51.23c-.17.06-.26,0-.28-.08a8.23,8.23,0,0,1-.26-.92c0-.12.06-.15.29-.1l1.76.18h3.89a2.26,2.26,0,0,1-.72-1.36,3.39,3.39,0,0,0-1.25-2.56.29.29,0,0,1-.08-.25.18.18,0,0,1,.23-.13l.85.13a4.06,4.06,0,0,1,2.81,1.84,2.07,2.07,0,0,1,.08,1.53,1.45,1.45,0,0,1-.59.8h4.91a18.84,18.84,0,0,0,1.28-4.23c0-.17.08-.24.23-.23.84.18,1.65.39,2.43.64q.69.18.66.57c0,.25-.21.39-.53.41a.76.76,0,0,0-.54.35,12.38,12.38,0,0,1-2.63,2.49h3.3a.54.54,0,0,0,.46-.23,18.43,18.43,0,0,1,1.38-1.77.37.37,0,0,1,.51,0,7.8,7.8,0,0,1,2.4,2.2c.12.14.16.25.11.36a.47.47,0,0,1-.44.18H45v2.07h3.23a.47.47,0,0,0,.4-.21c.4-.53.82-1,1.28-1.56a.3.3,0,0,1,.44,0,7.34,7.34,0,0,1,2.1,1.94c.12.14.15.26.1.36a.47.47,0,0,1-.44.18H45v2.07h5.83a.5.5,0,0,0,.44-.23c.43-.56.88-1.12,1.36-1.69a.34.34,0,0,1,.48,0,8.35,8.35,0,0,1,2.3,2.12c.12.14.16.26.11.36a.47.47,0,0,1-.44.18H41.26a15.87,15.87,0,0,1,1.9,1.18c.25.22.34.42.28.59a.57.57,0,0,1-.49.18,12.35,12.35,0,0,0-2.53.51v2.07H45.3a21.12,21.12,0,0,1-.38-2.79c0-.37-.08-.72-.13-1.05,0-.18.06-.27.23-.25a16.47,16.47,0,0,1,2.74.43.46.46,0,0,1,.31.31c0,.19-.11.38-.41.59a.65.65,0,0,0-.21.69,12.74,12.74,0,0,0,.28,2.07h3.18a.5.5,0,0,0,.41-.21c.39-.52.81-1,1.27-1.56a.3.3,0,0,1,.44,0,7.34,7.34,0,0,1,2.1,1.94c.12.14.15.26.1.36s-.21.18-.44.18H47.86a11.85,11.85,0,0,0,1.2,3.09A15.58,15.58,0,0,0,50.5,106c0-.1.1-.13.2-.08a14.52,14.52,0,0,1,2.3,1.23c.28.21.38.39.31.56a.48.48,0,0,1-.51.21.45.45,0,0,0-.41.2,20.79,20.79,0,0,1-1.84,1.77c1.19.94,2.07,1.38,2.63,1.33.39-.14.85-1.13,1.36-3,.08-.22.2-.32.36-.31s.24.22.23.49c-.14,2.13,0,3.32.33,3.58A1.53,1.53,0,0,1,56,113.6a1.39,1.39,0,0,1-1.31.74,6.5,6.5,0,0,1-3.4-1,12.48,12.48,0,0,1-2.71-2,19.12,19.12,0,0,1-6.73,2.53c-.14,0-.21,0-.23-.13a.15.15,0,0,1,.15-.2A21,21,0,0,0,47.45,110Zm1-9.29a.23.23,0,0,1-.13-.25.19.19,0,0,1,.23-.13,4.76,4.76,0,0,1,.64,0,3.41,3.41,0,0,1,2.41.94,2.21,2.21,0,0,1,.2,1.46,1.18,1.18,0,0,1-.77,1,1.2,1.2,0,0,1-1.17-.16,1.79,1.79,0,0,1-.64-1.1A2.56,2.56,0,0,0,48.45,100.73Z"/><path class="cls-3" d="M71,111.12V93.6H63.83l-1.51.23c-.17.07-.26,0-.28-.08a8.23,8.23,0,0,1-.25-.92c0-.12.06-.15.28-.1l1.76.18H78.08a.59.59,0,0,0,.51-.26c.45-.63.93-1.26,1.46-1.89a.39.39,0,0,1,.54-.05,9.28,9.28,0,0,1,2.63,2.35c.12.14.16.26.11.36a.47.47,0,0,1-.44.18h-9v17.52h5.47a.59.59,0,0,0,.51-.26c.45-.63.93-1.26,1.46-1.89a.41.41,0,0,1,.54,0,9.43,9.43,0,0,1,2.63,2.35c.12.14.15.26.1.36s-.21.18-.43.18H62.61L61.1,112c-.17.07-.27,0-.28-.08a6.18,6.18,0,0,1-.26-.92c0-.12.06-.15.28-.1l1.77.18Z"/><path class="cls-3" d="M95.74,101v12.23a1,1,0,0,1-.64.92,2,2,0,0,1-1.69-.08.88.88,0,0,1-.43-.87v-7.85a8.71,8.71,0,0,1-3.2,4.76c-.19.12-.34.12-.46,0a.3.3,0,0,1,0-.41,34.8,34.8,0,0,0,3.58-11.23H91.11l-1.66.2c-.12.05-.19,0-.2-.07q-.1-.44-.21-.9c0-.08.06-.12.23-.1l1.84.18H93V93.39c-1.42.19-2.49.29-3.22.31q-.39,0-.39-.15c0-.14.06-.23.23-.28A21.69,21.69,0,0,0,96.25,90c.19-.17.35-.22.46-.15a10.69,10.69,0,0,1,2.41,1.48c.36.31.48.57.36.79s-.37.25-.8.18l-2.94.64v4.89H96a.46.46,0,0,0,.38-.21,14,14,0,0,1,1-1.43c.13-.24.31-.27.53-.1a6.58,6.58,0,0,1,1.51,1.71.49.49,0,0,1,.13.51c0,.14-.18.21-.38.21H95.74v1.61l.23,0a5.05,5.05,0,0,1,3.2,2.66,2.21,2.21,0,0,1,0,1.54,1.17,1.17,0,0,1-1,.82,1.21,1.21,0,0,1-1.15-.36,1.71,1.71,0,0,1-.46-1.26A5.33,5.33,0,0,0,95.74,101Zm8.42,11.62v-4.94H101l-1.51.23c-.17.07-.27,0-.28-.08A8.23,8.23,0,0,1,99,107c0-.12.06-.15.28-.1L101,107h3.12v-3.61a36.16,36.16,0,0,1-4.22.33c-.17,0-.27-.08-.28-.2s.06-.24.23-.26a28.44,28.44,0,0,0,8.49-3.37.59.59,0,0,1,.38-.11,13.27,13.27,0,0,1,2.51,1.59c.31.22.41.44.31.66s-.29.23-.57.18-1.56.26-4.11.77v4h.56a.49.49,0,0,0,.43-.23c.43-.57.88-1.13,1.36-1.69a.33.33,0,0,1,.48,0,8.39,8.39,0,0,1,2.31,2.12c.12.14.15.26.1.36s-.21.18-.44.18h-4.8v4.94h1.68a.49.49,0,0,0,.44-.24c.42-.56.88-1.12,1.35-1.68a.34.34,0,0,1,.49,0,8.2,8.2,0,0,1,2.3,2.12c.12.14.16.25.11.36a.47.47,0,0,1-.44.18H99.4l-1.51.23c-.17.06-.26,0-.28-.08a8.23,8.23,0,0,1-.26-.92c0-.12.06-.16.29-.1l1.76.18ZM102.6,98v.51a1.09,1.09,0,0,1-.44.95,2.58,2.58,0,0,1-1.28.35,1.39,1.39,0,0,1-.84-.23.84.84,0,0,1-.18-.69V90.2c0-.17,0-.25.1-.23a8.11,8.11,0,0,1,2.69,1h5.68s.36-.33.94-.89a.25.25,0,0,1,.29,0A9.47,9.47,0,0,1,112,91.3c.48.35.41.69-.2,1a.48.48,0,0,0-.26.46v5.81a.88.88,0,0,1-.44.74,3.17,3.17,0,0,1-1.3.33,1,1,0,0,1-.82-.3,1.28,1.28,0,0,1-.18-.77V98Zm0-.69h6.16v-5.5c-.07-.16-.16-.21-.28-.16h-5.8l-.08,0Z"/><path class="cls-4" d="M55.81,58.81C63.3,64,71,68.63,82.22,71.05c3.66.83,7.77,1.36,10-.53A6.47,6.47,0,0,0,93.92,68c1.09-3.1.18-6.35-1.19-9.38a44,44,0,0,0-3.47-6.34V48.68c6.12,6.42,12,13,12.43,21.77.18,3.7-.55,7.86-3.66,9.75-2,1.21-5,1.44-7.86,1.29-6-.38-11.06-2.8-15.9-5.45C56.81,66.82,38.43,52.86,26.18,39.33,22.12,34.84,17.3,29.27,13.55,24.5L34,42.33c7.11,5.51,14,11,21.85,16.48Z"/><path class="cls-5" d="M18.05,36.24C31.77,50.34,47.72,66,64.9,75.51c3.8,2.09,7.8,4.1,11.92,6H52.15c-2.85-3-5.69-5.93-8.43-9C34.86,62.69,27.48,52,20.21,39.76Z"/><path class="cls-6" d="M34,39.49h0V34.26l19-9.44V54.08l11.26,7.65,13-6.59V67.62c1.61.48,3.27.92,5,1.3a25.23,25.23,0,0,0,5.76.75V22.33l-10.8,7.32V51.38l-13,6.56V28.64L53,21.07l-19,9.4V4.32L55.79,14.78v6.39l3.31,2.22V12L34,0,21,8.72V28.11Z"/><path class="cls-6" d="M77.18,79.38v2.15h6.1A27,27,0,0,1,77.18,79.38Z"/><path class="cls-6" d="M21,44.69V81.51H34V64.22C29.42,58.12,25.18,51.64,21,44.69Z"/><text class="cls-7" transform="translate(1.42 132.09)">專業 ‧ 誠信 ‧ 永續</text></svg>