<svg id="圖層_1" data-name="圖層 1" xmlns="http://www.w3.org/2000/svg" xmlns:xlink="http://www.w3.org/1999/xlink" viewBox="0 0 20.03 13.62"><defs><style>.cls-1,.cls-2{fill-rule:evenodd;}.cls-1{fill:url(#未命名漸層_2);}.cls-2{fill:url(#未命名漸層_2-2);}</style><linearGradient id="未命名漸層_2" y1="6.48" x2="20.03" y2="6.48" gradientUnits="userSpaceOnUse"><stop offset="0.23" stop-color="#004162"/><stop offset="1" stop-color="#107aa7"/></linearGradient><linearGradient id="未命名漸層_2-2" x1="4.21" y1="8.14" x2="19.01" y2="8.14" xlink:href="#未命名漸層_2"/></defs><title>mark</title><path class="cls-1" d="M10.43,7.79a15.67,15.67,0,0,1-6,2.79,2.83,2.83,0,0,1-2.28-.12,1.4,1.4,0,0,1-.38-.57A2.86,2.86,0,0,1,2,7.76c.46-1,2.39-4,2.39-4L2.83,5.49C1.44,7,.11,8.45,0,10.44a2.35,2.35,0,0,0,.83,2.22A3.37,3.37,0,0,0,2.62,13a8.67,8.67,0,0,0,3.62-1.24A42.36,42.36,0,0,0,17.16,3.37c.93-1,2-2.29,2.87-3.37L15.39,4.05c-1.61,1.25-3.19,2.5-5,3.74Z"/><path class="cls-2" d="M19,2.67c-3.12,3.2-6.74,6.76-10.65,8.92-.86.48-3.21,1.59-4.15,2,0,0,3.63-.53,4.33-.66A10.47,10.47,0,0,0,13,10.73l0,0a45.67,45.67,0,0,0,5.54-7.24Z"/></svg>