<svg id="f26e1e6e-62b0-43e6-b08c-f6dfbe923d7e" data-name="圖層 1" xmlns="http://www.w3.org/2000/svg" viewBox="0 0 159.61 169.64"><defs><style>.fef55efe-9963-4b8c-9eff-30dc538840d9{fill:#231815;}.eb0e9f63-7d85-42d0-995e-2baf1a9e111f{fill:#51a0bf;}.b12b8cdc-8ba2-4c92-8b9c-40dc923a1197,.eb0e9f63-7d85-42d0-995e-2baf1a9e111f,.f3c1b8d2-7415-4ee2-baf4-630b289f45ef{fill-rule:evenodd;}.f3c1b8d2-7415-4ee2-baf4-630b289f45ef{fill:#008585;}.b12b8cdc-8ba2-4c92-8b9c-40dc923a1197{fill:#004663;}</style></defs><title>company</title><path class="fef55efe-9963-4b8c-9eff-30dc538840d9" d="M5.37,140.37a6.82,6.82,0,0,1-1.47,4.55,3.15,3.15,0,0,1-2,.67,2.1,2.1,0,0,1-1.59-.93,2.16,2.16,0,0,1-.11-1.88,2.74,2.74,0,0,1,1.48-1.56,6.08,6.08,0,0,0,3-3.58c0-.17.13-.26.23-.26a.31.31,0,0,1,.26.29,8.5,8.5,0,0,1,.22,1.45l2.14.11h7.8v-5q0-.25,0-.63c0-.1.08-.15.26-.15a20.24,20.24,0,0,1,4.25.56c.52.19.78.42.78.66s-.24.59-.71.74c-.29.1-.43.27-.4.52v3.33h8.46a1,1,0,0,0,.6-.3,7.07,7.07,0,0,1,1.4-1.07.78.78,0,0,1,.63,0,18.73,18.73,0,0,1,3.77,2.47.85.85,0,0,1,.22.85,1.09,1.09,0,0,1-.92.3,1.17,1.17,0,0,0-.56.07A64,64,0,0,1,27.34,145q-.53.1-.63,0a.63.63,0,0,1,0-.6,30.85,30.85,0,0,0,2-4.17H7.48ZM10,148.8H4.08l-2.18.34c-.25.1-.38.06-.41-.11a10.48,10.48,0,0,1-.37-1.34c-.05-.17.09-.22.41-.14l2.55.26h6.06c.25-1.58.42-3.16.52-4.74,0-.44.05-.85.08-1.22,0-.22.08-.34.26-.37a25,25,0,0,1,4.28.71c.6.14.89.36.89.66s-.22.5-.66.67a.58.58,0,0,0-.45.55c-.22,1.14-.48,2.38-.77,3.74h12a.86.86,0,0,0,.74-.37c.64-.92,1.35-1.83,2.11-2.74a.57.57,0,0,1,.78-.07,13.66,13.66,0,0,1,3.81,3.4c.17.2.22.37.14.52s-.3.25-.62.25H14.06a61.23,61.23,0,0,1-3.43,9.8,20.28,20.28,0,0,1-9.8,9.14c-.23,0-.35,0-.37-.08s.07-.34.37-.51Q8.58,160.34,10,148.8Zm16.79,14.31a99.53,99.53,0,0,1-15.42,4.48c-.72.17-1.12.41-1.22.7-.17.44-.42.67-.74.67s-.53-.3-.7-1c-.3-1.14-.57-2.42-.82-3.85,0-.27.12-.39.45-.37,1.92.05,3.8.06,5.65,0,2.1-4.79,3.15-9,3.15-12.54a.23.23,0,0,1,.29-.22,16.58,16.58,0,0,1,4.18,1.07c.49.22.74.46.74.7s-.27.41-.67.49c-.24,0-.38.16-.4.33a33.93,33.93,0,0,1-6,10.13,100.51,100.51,0,0,0,11-1.55,8.67,8.67,0,0,0-2.81-3.11.32.32,0,0,1-.15-.44c.05-.18.18-.25.41-.22q6.42,1.84,8.35,6.65a3.3,3.3,0,0,1,.08,2.48A1.9,1.9,0,0,1,30.67,169a2.09,2.09,0,0,1-1.93-.44,3.2,3.2,0,0,1-.85-2A12.27,12.27,0,0,0,26.75,163.11Z"/><path class="fef55efe-9963-4b8c-9eff-30dc538840d9" d="M64.44,163.37a18.85,18.85,0,0,1-2.88-7H54.27v2.18q2.11-.56,4.26-1.26c.24-.1.4-.07.48.08a.51.51,0,0,1-.19.48,36.22,36.22,0,0,1-4.55,2.4v4.58a5.26,5.26,0,0,1-.55,2.67q-1.15,1.88-4.48,1.88c-.24-.05-.37-.16-.37-.33.13-1.48-.62-2.62-2.25-3.44-.2-.1-.29-.23-.26-.41a.28.28,0,0,1,.33-.22c1.09,0,2,0,2.78,0s1-.31,1-.93v-2.33q-2.4.81-4.62,1.59c-.66.22-1,.46-1,.71-.13.41-.34.64-.63.66s-.5-.23-.67-.78a25.24,25.24,0,0,1-1.07-3.36c0-.25.07-.37.37-.37a65.54,65.54,0,0,0,7.65-.78v-3H44.84l-2.18.33c-.24.1-.38.06-.4-.11a8.93,8.93,0,0,1-.37-1.33c0-.17.08-.22.4-.15l2.55.26h5.62v-2.26a48.73,48.73,0,0,1-6.76.74c-.22,0-.35-.08-.37-.26s.08-.3.33-.33a41.33,41.33,0,0,0,10.58-4.44H45l-2.18.34c-.25.1-.38.06-.41-.11a12.42,12.42,0,0,1-.37-1.34c-.05-.17.09-.22.41-.14l2.55.26H56.82v-3H48.54l-2.18.33c-.25.1-.38.07-.41-.11a10.33,10.33,0,0,1-.37-1.33c0-.17.09-.22.41-.15l2.55.26h8.28v-3H46.47l-2.18.33c-.25.1-.38.06-.41-.11a10.33,10.33,0,0,1-.37-1.33c0-.17.09-.22.41-.15l2.55.26h5.62a3.23,3.23,0,0,1-1-2,4.9,4.9,0,0,0-1.82-3.7.41.41,0,0,1-.11-.37.27.27,0,0,1,.34-.18l1.22.18a5.89,5.89,0,0,1,4.06,2.66,3,3,0,0,1,.11,2.22,2,2,0,0,1-.85,1.15h7.1a26.73,26.73,0,0,0,1.85-6.1c0-.25.11-.36.34-.34a33.48,33.48,0,0,1,3.51.93q1,.25,1,.81t-.78.6a1.1,1.1,0,0,0-.77.51,17.49,17.49,0,0,1-3.81,3.59h4.77a.74.74,0,0,0,.66-.33,25.76,25.76,0,0,1,2-2.56.54.54,0,0,1,.74-.07A11.54,11.54,0,0,1,74.06,140c.17.2.22.37.14.52a.67.67,0,0,1-.63.26H60.93v3h4.66a.69.69,0,0,0,.59-.29c.57-.77,1.18-1.52,1.85-2.26a.42.42,0,0,1,.63,0,10.43,10.43,0,0,1,3,2.81c.17.2.22.37.15.52a.67.67,0,0,1-.63.26H60.93v3h8.43a.73.73,0,0,0,.63-.34c.61-.81,1.27-1.62,2-2.44a.5.5,0,0,1,.7-.07A12.1,12.1,0,0,1,76,148c.17.2.22.37.15.52s-.31.25-.63.25h-20a20.51,20.51,0,0,1,2.74,1.71c.37.32.5.6.41.85a.76.76,0,0,1-.71.25,19.77,19.77,0,0,0-3.66.74v3h7.07a27.38,27.38,0,0,1-.56-4c-.05-.54-.11-1-.18-1.52,0-.27.08-.39.33-.37a23.68,23.68,0,0,1,4,.63.68.68,0,0,1,.44.45c0,.27-.15.55-.59.85a1,1,0,0,0-.3,1,17.08,17.08,0,0,0,.41,3h4.58a.7.7,0,0,0,.6-.3c.56-.76,1.18-1.51,1.84-2.25a.43.43,0,0,1,.63,0,10.31,10.31,0,0,1,3,2.81c.18.2.23.37.15.52a.67.67,0,0,1-.63.26H65a18,18,0,0,0,1.74,4.47,23.64,23.64,0,0,0,2.07-3.21q.07-.23.3-.12a22.17,22.17,0,0,1,3.33,1.78c.39.29.54.57.44.81a.72.72,0,0,1-.74.3.63.63,0,0,0-.59.29,29.63,29.63,0,0,1-2.66,2.56c1.72,1.35,3,2,3.8,1.92q.86-.3,2-4.29c.13-.32.3-.47.52-.45s.36.31.33.71q-.28,4.62.48,5.17a2.2,2.2,0,0,1,.78,2.26,2,2,0,0,1-1.88,1.07,9.5,9.5,0,0,1-4.92-1.4,18,18,0,0,1-3.92-2.89A27.25,27.25,0,0,1,56.34,169q-.29,0-.33-.18a.24.24,0,0,1,.22-.3A30.26,30.26,0,0,0,64.44,163.37ZM65.88,150a.32.32,0,0,1-.18-.37.26.26,0,0,1,.33-.18,6.18,6.18,0,0,1,.93,0,4.9,4.9,0,0,1,3.47,1.37,3,3,0,0,1,.3,2.1A1.78,1.78,0,0,1,67.92,154a2.6,2.6,0,0,1-.93-1.59A3.64,3.64,0,0,0,65.88,150Z"/><path class="fef55efe-9963-4b8c-9eff-30dc538840d9" d="M98.47,165V139.63H88.12l-2.18.34c-.25.1-.38.06-.41-.11a10.48,10.48,0,0,1-.37-1.34c0-.17.09-.22.41-.14l2.55.26h20.6a.87.87,0,0,0,.74-.37c.64-.92,1.34-1.83,2.1-2.74a.57.57,0,0,1,.78-.07,13.66,13.66,0,0,1,3.81,3.4c.17.2.22.37.15.52s-.31.25-.63.25H102.58V165h7.91a.84.84,0,0,0,.74-.37c.64-.91,1.35-1.82,2.11-2.73a.58.58,0,0,1,.78-.08,13.79,13.79,0,0,1,3.8,3.4c.18.2.23.37.15.52a.67.67,0,0,1-.63.26H86.35l-2.19.33c-.24.1-.38.07-.4-.11a10.33,10.33,0,0,1-.37-1.33c0-.17.08-.22.41-.15l2.55.26Z"/><path class="fef55efe-9963-4b8c-9eff-30dc538840d9" d="M134.25,150.39v17.68a1.41,1.41,0,0,1-.93,1.33,2.94,2.94,0,0,1-2.44-.11,1.29,1.29,0,0,1-.63-1.26V156.68a12.58,12.58,0,0,1-4.62,6.88.5.5,0,0,1-.67,0,.43.43,0,0,1,0-.59,50,50,0,0,0,5.18-16.24h-2.63l-2.4.3c-.17.07-.27,0-.3-.11-.09-.42-.19-.85-.29-1.3,0-.12.08-.17.33-.14l2.66.26h2.7v-6.4a45.42,45.42,0,0,1-4.66.44c-.37,0-.55-.05-.55-.22s.09-.33.33-.41q6.62-2.25,9.62-4.73c.27-.25.49-.32.66-.22a16,16,0,0,1,3.48,2.14c.51.45.69.83.51,1.15s-.53.36-1.14.26l-4.25.92v7.07h.37a.67.67,0,0,0,.55-.3,17.62,17.62,0,0,1,1.48-2.07.46.46,0,0,1,.78-.15,9.91,9.91,0,0,1,2.18,2.48.69.69,0,0,1,.18.74c-.07.2-.26.29-.55.29h-5v2.33l.33.08A7.25,7.25,0,0,1,139.2,153a3.15,3.15,0,0,1-.07,2.22,1.66,1.66,0,0,1-1.41,1.18,1.69,1.69,0,0,1-1.66-.51,2.52,2.52,0,0,1-.67-1.81A7.75,7.75,0,0,0,134.25,150.39Zm12.16,16.79V160H141.9l-2.18.34c-.25.1-.38.06-.41-.11a10.8,10.8,0,0,1-.37-1.33c-.05-.18.09-.23.41-.15l2.55.26h4.51v-5.22a52,52,0,0,1-6.1.48c-.25,0-.38-.12-.41-.29s.09-.35.34-.37q8.06-2.07,12.27-4.88a.84.84,0,0,1,.56-.15,18.86,18.86,0,0,1,3.62,2.29c.44.32.59.64.44,1a.68.68,0,0,1-.81.26q-.4,0-5.95,1.11v5.81h.81a.71.71,0,0,0,.63-.34c.62-.81,1.27-1.62,2-2.44a.5.5,0,0,1,.7-.07,12.1,12.1,0,0,1,3.33,3.07c.17.2.22.37.15.52s-.31.25-.63.25h-6.95v7.14h2.44a.72.72,0,0,0,.63-.33c.61-.81,1.27-1.63,2-2.44a.5.5,0,0,1,.7-.08,12.25,12.25,0,0,1,3.33,3.07c.17.2.22.37.14.52s-.3.26-.62.26H139.53l-2.18.33c-.24.1-.38.06-.41-.11a12.24,12.24,0,0,1-.37-1.33c0-.17.09-.22.41-.15l2.55.26ZM144.16,146v.74a1.57,1.57,0,0,1-.63,1.37,3.83,3.83,0,0,1-1.85.52,2.11,2.11,0,0,1-1.22-.33,1.25,1.25,0,0,1-.26-1V134.72c0-.25.05-.36.15-.34a11.8,11.8,0,0,1,3.88,1.45h8.21c.07-.05.53-.48,1.37-1.3a.33.33,0,0,1,.4,0,13.73,13.73,0,0,1,3.48,1.82q1,.76-.3,1.44a.68.68,0,0,0-.37.66v8.4a1.25,1.25,0,0,1-.63,1.07,4.43,4.43,0,0,1-1.88.48,1.39,1.39,0,0,1-1.18-.44,1.64,1.64,0,0,1-.26-1.11V146Zm0-1h8.91v-7.95c-.1-.23-.24-.3-.41-.23h-8.39l-.11,0Z"/><path class="eb0e9f63-7d85-42d0-995e-2baf1a9e111f" d="M76.52,85c10.83,7.54,21.93,14.2,38.18,17.7,5.28,1.2,11.23,2,14.53-.77a9.27,9.27,0,0,0,2.38-3.6c1.58-4.48.26-9.18-1.72-13.55a64.06,64.06,0,0,0-5-9.18V70.36c8.85,9.29,17.31,18.8,18,31.47.26,5.36-.79,11.37-5.28,14.1-2.91,1.75-7.27,2.08-11.37,1.86-8.72-.55-16-4-23-7.87C78,96.59,51.4,76.41,33.7,56.85c-5.88-6.5-12.85-14.55-18.27-21.43L44.94,61.18c10.28,8,20.29,15.89,31.58,23.83Z"/><path class="f3c1b8d2-7415-4ee2-baf4-630b289f45ef" d="M21.94,52.39c19.83,20.37,42.89,43,67.72,56.76,5.49,3,11.28,5.92,17.23,8.7H71.23c-4.12-4.29-8.23-8.57-12.19-13-12.8-14.24-23.47-29.74-34-47.38Z"/><path class="b12b8cdc-8ba2-4c92-8b9c-40dc923a1197" d="M44.94,57.08h0V49.52L72.38,35.88v42.3L88.66,89.24l18.76-9.53v18c2.32.7,4.73,1.33,7.28,1.88a36.22,36.22,0,0,0,8.32,1.09V32.27l-15.6,10.59V74.27L88.66,83.76V41.4L72.38,30.46,45,44V6.25L76.5,21.36v9.25l4.77,3.21V17.4L45,0,26.2,12.6v28Z"/><path class="b12b8cdc-8ba2-4c92-8b9c-40dc923a1197" d="M107.42,114.74v3.11h8.82A38.73,38.73,0,0,1,107.42,114.74Z"/><path class="b12b8cdc-8ba2-4c92-8b9c-40dc923a1197" d="M26.2,64.59v53.23H45v-25C38.38,84,32.25,74.64,26.2,64.59Z"/></svg>