<svg id="f6e207a8-58b0-459d-a7c5-4eb356b05854" data-name="圖層 1" xmlns="http://www.w3.org/2000/svg" viewBox="0 0 253 253"><defs><style>.a5b465c4-c941-466a-b8e4-9d5eb368bfc0,.b8ff3c18-2f18-485b-acf2-775348abc233{fill:#fff;}.a5b465c4-c941-466a-b8e4-9d5eb368bfc0{stroke:#51a0bf;stroke-width:8px;}.a3a29c08-3ff1-420c-b589-5aebced14af1,.a5b465c4-c941-466a-b8e4-9d5eb368bfc0{stroke-miterlimit:10;}.a3a29c08-3ff1-420c-b589-5aebced14af1{font-size:60px;fill:#4d4d4d;stroke:#4d4d4d;font-family:HanaMinA;}.e729120b-5b8a-45a2-b270-714a58c5b674{fill:#b8df21;}.b53bf243-dfa1-4b21-ac19-4e02e3431085{fill:#80d053;}.a7583e33-47fd-4b82-a1ad-c91bb8aa58c3{fill:#e0e0e1;}</style></defs><title>未命名-1</title><circle class="a5b465c4-c941-466a-b8e4-9d5eb368bfc0" cx="126.5" cy="126.5" r="122.5"/><text class="a3a29c08-3ff1-420c-b589-5aebced14af1" transform="translate(66.5 191)">永續</text><circle class="e729120b-5b8a-45a2-b270-714a58c5b674" cx="126.5" cy="87.46" r="36.91"/><path class="b53bf243-dfa1-4b21-ac19-4e02e3431085" d="M126.5,50.54a36.92,36.92,0,0,1,0,73.83Z"/><path class="b8ff3c18-2f18-485b-acf2-775348abc233" d="M121.86,82l5.25-13.57-13.57-5.25-1.56,4,5.69,2.2a20.07,20.07,0,0,0,0,36l1.91-3.88a15.74,15.74,0,0,1,1.21-28.81l-3,7.68Z"/><path class="a7583e33-47fd-4b82-a1ad-c91bb8aa58c3" d="M146.56,87.48a20.07,20.07,0,0,0-11.24-18l-1.91,3.88a15.74,15.74,0,0,1-1.21,28.81l3-7.68-4-1.56-5.25,13.57,13.57,5.25,1.56-4-5.69-2.2A20.08,20.08,0,0,0,146.56,87.48Z"/></svg>