<svg id="e5987ce1-9f49-40d1-ab6a-22ecfe55737d" data-name="圖層 1" xmlns="http://www.w3.org/2000/svg" viewBox="0 0 253 253"><defs><style>.e5fcdb2a-5885-42f8-a681-aadf204c9774{fill:#fff;stroke:#51a0bf;stroke-width:8px;}.bb3981d1-2f12-4615-8d96-06410c5e7cd0,.e5fcdb2a-5885-42f8-a681-aadf204c9774{stroke-miterlimit:10;}.bb3981d1-2f12-4615-8d96-06410c5e7cd0{font-size:60px;fill:#4d4d4d;stroke:#4d4d4d;font-family:HanaMinA;}.b480404f-cb52-401c-9179-43600b98c1f3{fill:#f2b400;}.a1d83f93-240f-4f56-90d8-6d2e041e13e9{fill:#ff8600;}.a0f7a7c9-c55f-471f-9cea-1bb153401682{fill:#ffcf2d;}</style></defs><title>未命名-1</title><circle class="e5fcdb2a-5885-42f8-a681-aadf204c9774" cx="126.5" cy="126.5" r="122.5"/><text class="bb3981d1-2f12-4615-8d96-06410c5e7cd0" transform="translate(66.5 191)">專業</text><path class="b480404f-cb52-401c-9179-43600b98c1f3" d="M146.05,67.84l-3.77,1-.69-3.69a35.69,35.69,0,0,0-32.29,0l-.68,3.69-3.77-1A36.08,36.08,0,0,0,89.32,97.3v7.2h72.25V97.3A36.07,36.07,0,0,0,146.05,67.84Z"/><path class="a1d83f93-240f-4f56-90d8-6d2e041e13e9" d="M161.57,97.3a36.07,36.07,0,0,0-15.52-29.46l-3.77,1-.69-3.69a35.74,35.74,0,0,0-16.14-3.86V104.5h36.12Z"/><path class="b480404f-cb52-401c-9179-43600b98c1f3" d="M142.28,92.86l3.77-25a37.61,37.61,0,0,0-4.46-2.64l-4.05,27Z"/><path class="a0f7a7c9-c55f-471f-9cea-1bb153401682" d="M113.36,92.15,109.3,65.2a36.7,36.7,0,0,0-4.45,2.64l3.77,25Z"/><path class="a0f7a7c9-c55f-471f-9cea-1bb153401682" d="M113.08,56.54l5.51,38.37h13.72l5.51-38.37Z"/><path class="b480404f-cb52-401c-9179-43600b98c1f3" d="M132.31,94.91h-6.86V56.54h12.37Z"/><path class="a0f7a7c9-c55f-471f-9cea-1bb153401682" d="M84.53,99.7v11.17l1.48.63a113.16,113.16,0,0,0,39.44,7.38,113.13,113.13,0,0,0,39.43-7.38l1.49-.63V99.7Z"/><path class="b480404f-cb52-401c-9179-43600b98c1f3" d="M166.37,99.7v11.17l-1.49.63a113.13,113.13,0,0,1-39.43,7.38V99.7Z"/></svg>