<svg id="b9c1789d-e498-44e1-912a-ad1e817b84da" data-name="圖層 1" xmlns="http://www.w3.org/2000/svg" viewBox="0 0 253 253"><defs><style>.fb698d95-31fb-46fe-971d-5dbac092f298{fill:#fff;stroke:#51a0bf;stroke-width:8px;}.fb698d95-31fb-46fe-971d-5dbac092f298,.fe3af8e3-ae4c-43e1-9e1a-fb182f23b8f8{stroke-miterlimit:10;}.fe3af8e3-ae4c-43e1-9e1a-fb182f23b8f8{font-size:60px;fill:#4d4d4d;stroke:#4d4d4d;font-family:HanaMinA;}.bf56ff23-8b5d-4704-a9ea-7c882beedae0{fill:#25a6ef;}.af87c228-40b0-48a4-8bb7-160faf62bd25{fill:#fff2ef;}.b3f58331-fc57-4b3f-aaee-8b6b476ed0d4{fill:#a8deff;}.f468124d-5b2a-4c3f-ac42-c8b45220bdd7{fill:#efbd50;}.b56cfee9-8b71-4059-bc45-13d4c4c9fef7{fill:#f1d38b;}</style></defs><title>未命名-1</title><circle class="fb698d95-31fb-46fe-971d-5dbac092f298" cx="126.5" cy="126.5" r="122.5"/><text class="fe3af8e3-ae4c-43e1-9e1a-fb182f23b8f8" transform="translate(66.5 191)">誠信</text><rect class="bf56ff23-8b5d-4704-a9ea-7c882beedae0" x="113.29" y="48.53" width="51.5" height="76.59" rx="1.65"/><path class="af87c228-40b0-48a4-8bb7-160faf62bd25" d="M118.58,56.45h15.84V71H118.58Z"/><path class="af87c228-40b0-48a4-8bb7-160faf62bd25" d="M142.35,56.45h15.84V71H142.35Z"/><path class="af87c228-40b0-48a4-8bb7-160faf62bd25" d="M142.35,80.22h15.84V94.75H142.35Z"/><path class="af87c228-40b0-48a4-8bb7-160faf62bd25" d="M142.35,102.67h15.84V117.2H142.35Z"/><path class="b3f58331-fc57-4b3f-aaee-8b6b476ed0d4" d="M150.27,90.79a1.29,1.29,0,0,1-.93-.39l-4-4,1.86-1.87,3,3,8.31-8.31,1.87,1.87L151.2,90.4a1.29,1.29,0,0,1-.93.39Z"/><path class="b3f58331-fc57-4b3f-aaee-8b6b476ed0d4" d="M150.27,113.24a1.29,1.29,0,0,1-.93-.39l-4-4,1.86-1.87,3,3,8.31-8.31,1.87,1.87-9.25,9.24a1.29,1.29,0,0,1-.93.39Z"/><path class="b3f58331-fc57-4b3f-aaee-8b6b476ed0d4" d="M150.27,67a1.29,1.29,0,0,1-.93-.39l-4-4,1.86-1.87,3,3,8.31-8.31,1.87,1.87-9.25,9.24a1.29,1.29,0,0,1-.93.39Z"/><path class="b3f58331-fc57-4b3f-aaee-8b6b476ed0d4" d="M126.5,67a1.29,1.29,0,0,1-.93-.39l-4-4,1.87-1.87,3,3,8.31-8.31,1.87,1.87-9.25,9.24a1.29,1.29,0,0,1-.93.39Z"/><circle class="f468124d-5b2a-4c3f-ac42-c8b45220bdd7" cx="111.97" cy="101.35" r="23.77"/><path class="af87c228-40b0-48a4-8bb7-160faf62bd25" d="M112,119.84a18.49,18.49,0,1,1,18.49-18.49h0A18.51,18.51,0,0,1,112,119.84Z"/><path class="b56cfee9-8b71-4059-bc45-13d4c4c9fef7" d="M112,81.54a19.81,19.81,0,1,0,19.81,19.81A19.81,19.81,0,0,0,112,81.54Zm17.12,21.13a17.16,17.16,0,0,1-4.08,9.85l-1.83-1.83-1.87,1.87,1.83,1.82a17.08,17.08,0,0,1-9.85,4.09v-2.59h-2.64v2.59a17.13,17.13,0,0,1-9.84-4.08l1.83-1.83-1.87-1.87-1.83,1.83a17.1,17.1,0,0,1-4.08-9.85h2.59V100H94.86a17.07,17.07,0,0,1,4.08-9.84L100.77,92l1.87-1.86-1.83-1.83a17,17,0,0,1,9.84-4.08v2.59h2.64V84.24a17,17,0,0,1,9.85,4.08l-1.83,1.83L123.18,92,125,90.19a17.13,17.13,0,0,1,4.08,9.84H126.5v2.64Z"/><path class="f468124d-5b2a-4c3f-ac42-c8b45220bdd7" d="M110.65,103.36l-6.1,4.89,1.65,2.06,6.6-5.28a1.36,1.36,0,0,0,.49-1V90.79h-2.64Z"/></svg>